<svg xmlns="http://www.w3.org/2000/svg" width="600" height="600" viewBox="0 0 75 75">
  <g fill="none" fill-rule="evenodd">
    <path fill="#F0EB71"
      d="M18.259 41.954l.003-.002c-.357-1.49-.57-3.04-.57-4.64 0-10.946 8.86-19.819 19.791-19.819 1.884 0 3.7.281 5.425.773-11.326-3.26-19.953-16.171-30.413-8.775A37.422 37.422 0 001.405 27.56c11.09 3.034 15.334 8.367 16.854 14.395" />
    <path fill="#43497D"
      d="M47.144 73.46c-2.94-11.134-.459-17.486 3.99-21.824-3.552 3.395-8.353 5.492-13.652 5.492-9.33 0-17.13-6.474-19.22-15.175l-.004.001c2.902 11.503-4.107 25.534 7.635 30.932a37.353 37.353 0 0021.25.575" />
    <path fill="#73C6D0"
      d="M43.413 18.4c8.031 2.525 13.86 10.035 13.86 18.91a19.77 19.77 0 01-5.74 13.951c8.566-7.933 23.698-9.062 22.503-21.737a37.372 37.372 0 00-10.15-18.692c-7.974 7.947-14.591 9.099-20.473 7.569" />
    <path fill="#F0EB71" d="M51.134 51.635h.001a.021.021 0 01.01-.008.035.035 0 00-.011.008" />
    <path fill="#43497D"
      d="M42.909 18.266c.166.048.338.083.504.135 5.882 1.531 12.498.379 20.473-7.569C57.125 4.072 47.792-.11 37.483-.11c-9.607 0-18.367 3.635-24.987 9.601 10.46-7.396 19.085 5.515 30.413 8.775" />
    <path fill="#F0EB71"
      d="M51.533 51.26c-.125.126-.26.243-.39.367l-.008.009c-4.448 4.338-6.932 10.691-3.991 21.825 15.953-4.265 27.707-18.83 27.707-36.15 0-2.672-.285-5.276-.816-7.787C75.231 42.199 60.1 43.328 51.533 51.26" />
    <path fill="#73C6D0"
      d="M18.259 41.954c-1.52-6.028-5.765-11.36-16.854-14.395a37.49 37.49 0 00-1.29 9.752c0 16.614 10.816 30.69 25.778 35.575-11.742-5.399-4.732-19.428-7.634-30.932" />
  </g>
  <animateTransform attributeName="transform" type="rotate" dur="3s" repeatCount="indefinite" keyTimes="0;1"
    values="0 0 0;360 0 0" />
</svg>