<svg viewBox="0 0 12 12" fill="none" xmlns="http://www.w3.org/2000/svg">
<path d="M8 3C8 3.55228 7.55228 4 7 4C6.44772 4 6 3.55228 6 3C6 2.44772 6.44772 2 7 2C7.55228 2 8 2.44772 8 3ZM2.5 0C1.11929 0 0 1.11929 0 2.5V7.5C0 8.88071 1.11929 10 2.5 10H7.5C8.88071 10 10 8.88071 10 7.5V2.5C10 1.11929 8.88071 0 7.5 0H2.5ZM1 2.5C1 1.67157 1.67157 1 2.5 1H7.5C8.32843 1 9 1.67157 9 2.5V7.5C9 7.73157 8.94753 7.95088 8.85382 8.1467L6.20919 5.50207C5.54139 4.83427 4.45868 4.83427 3.79089 5.50207L1.1462 8.14675C1.05248 7.95092 1 7.73159 1 7.5V2.5ZM1.85333 8.85383L4.49799 6.20917C4.77526 5.9319 5.22481 5.9319 5.50208 6.20918L8.14672 8.85381C7.9509 8.94752 7.73158 9 7.5 9H2.5C2.26844 9 2.04914 8.94753 1.85333 8.85383ZM4.99994 12C4.18203 12 3.45586 11.6072 2.99976 11H7.49994C9.43294 11 10.9999 9.433 10.9999 7.5V1.99982C11.6072 2.45592 11.9999 3.18209 11.9999 4V7.5C11.9999 9.98528 9.98522 12 7.49994 12H4.99994Z" fill="white" fill-opacity="0.786"/>
</svg>
