<svg viewBox="0 0 16 16" fill="none" xmlns="http://www.w3.org/2000/svg">
<path d="M7.52941 15.0588C7.74105 15.0588 7.95066 15.0501 8.15788 15.033C7.47295 14.9184 6.9133 14.4341 6.69123 13.7921C6.3216 13.5053 5.95379 13.023 5.62656 12.3217C5.42186 11.8831 5.24397 11.379 5.10058 10.8235H6.58824V9.88235H4.89992C4.77501 9.1532 4.70588 8.36076 4.70588 7.52941C4.70588 6.69806 4.77501 5.90562 4.89992 5.17647H10.1589C10.2838 5.90562 10.3529 6.69806 10.3529 7.52941H11.2941C11.2941 6.70996 11.2308 5.91842 11.1128 5.17647H13.6851C13.9645 5.9072 14.1176 6.70043 14.1176 7.52941H15.0588C15.0588 3.37103 11.6878 0 7.52941 0C3.37103 0 0 3.37103 0 7.52941C0 11.6878 3.37103 15.0588 7.52941 15.0588ZM7.52941 0.941176C8.14762 0.941176 8.85343 1.49671 9.43227 2.73707C9.63696 3.1757 9.81485 3.67979 9.95825 4.23529H5.10058C5.24397 3.67979 5.42186 3.1757 5.62656 2.73707C6.2054 1.49671 6.9112 0.941176 7.52941 0.941176ZM4.77368 2.33906C4.51354 2.8965 4.29646 3.53596 4.13112 4.23529H1.82256C2.60983 2.87434 3.86995 1.82115 5.37827 1.30036C5.15103 1.6115 4.94897 1.96345 4.77368 2.33906ZM3.94602 5.17647C3.82798 5.91842 3.76471 6.70996 3.76471 7.52941C3.76471 8.34886 3.82798 9.1404 3.94602 9.88235H1.37377C1.09429 9.15162 0.941176 8.3584 0.941176 7.52941C0.941176 6.70043 1.09429 5.9072 1.37377 5.17647H3.94602ZM4.13112 10.8235C4.29646 11.5229 4.51354 12.1623 4.77368 12.7198C4.94897 13.0954 5.15103 13.4473 5.37827 13.7585C3.86995 13.2377 2.60983 12.1845 1.82256 10.8235H4.13112ZM9.68055 1.30036C11.1889 1.82115 12.449 2.87434 13.2363 4.23529H10.9277C10.7624 3.53596 10.5453 2.8965 10.2851 2.33906C10.1099 1.96345 9.90779 1.6115 9.68055 1.30036ZM7.52941 9.41177C7.52941 8.89197 7.95079 8.47059 8.47059 8.47059H15.0588C15.5786 8.47059 16 8.89197 16 9.41177V13.1765C16 13.6963 15.5786 14.1176 15.0588 14.1176H13.1765V15.0588H13.6471C13.907 15.0588 14.1176 15.2695 14.1176 15.5294C14.1176 15.7893 13.907 16 13.6471 16H9.88235C9.62245 16 9.41177 15.7893 9.41177 15.5294C9.41177 15.2695 9.62245 15.0588 9.88235 15.0588H10.3529V14.1176H8.47059C7.95079 14.1176 7.52941 13.6963 7.52941 13.1765V9.41177Z" fill="white" fill-opacity="0.786"/>
</svg>
