<svg xmlns="http://www.w3.org/2000/svg" fill="none" viewBox="0 0 16 16">
  <path fill="#E0DFDF" d="M2 12V5h12v1.239a3.485 3.485 0 0 0 1 .362V4a3 3 0 0 0-3-3H4a3 3 0 0 0-3 3v8a3 3 0 0 0 3 3h4.51a5.212 5.212 0 0 1-.675-1H4a2 2 0 0 1-2-2ZM4 2h8a2 2 0 0 1 2 2H2a2 2 0 0 1 2-2Z"/>
  <path fill="#4CC2FF" d="M15.572 7.667a.404.404 0 0 1 .392.333l.008 2.585a5.294 5.294 0 0 1-3.87 5.394.384.384 0 0 1-.252 0c-3.056-1.062-3.623-2.923-3.87-5.394V8.082a.409.409 0 0 1 .4-.416 4.489 4.489 0 0 0 3.314-1.545.388.388 0 0 1 .565 0 4.5 4.5 0 0 0 3.313 1.545Z"/>
</svg>
