<svg xmlns="http://www.w3.org/2000/svg" fill="none" viewBox="0 0 16 16">
  <g clip-path="url(#a)">
    <path fill="#4CC2FF" d="M11.5 2a.5.5 0 0 1 .5.5v11a.5.5 0 0 1-1 0v-11a.5.5 0 0 1 .5-.5Z"/>
    <path fill="#4CC2FF" d="M7.146 9.146a.5.5 0 0 1 .708 0l3.646 3.647 3.646-3.647a.5.5 0 0 1 .708.708l-4 4a.5.5 0 0 1-.708 0l-4-4a.5.5 0 0 1 0-.708Z"/>
    <path fill="#E0DFDF" d="M4.5 2a.5.5 0 0 1 .5.5v11a.5.5 0 0 1-1 0v-11a.5.5 0 0 1 .5-.5Z"/>
    <path fill="#E0DFDF" d="M4.146 2.146a.5.5 0 0 1 .708 0l4 4a.5.5 0 1 1-.708.708L4.5 3.207.854 6.854a.5.5 0 1 1-.708-.708l4-4Z"/>
  </g>
  <defs>
    <clipPath id="a">
      <path fill="#fff" d="M0 0h16v16H0z"/>
    </clipPath>
  </defs>
</svg>
