<svg xmlns="http://www.w3.org/2000/svg" fill="none" viewBox="0 0 16 16">
  <path fill="#E0DFDF" d="M4 1a1 1 0 0 0-1 1v12a1 1 0 0 0 1 1h8a1 1 0 0 0 1-1V6.121a1 1 0 0 0-.293-.707L8.586 1.293A1 1 0 0 0 7.879 1H4ZM2 2a2 2 0 0 1 2-2h3.879a2 2 0 0 1 1.414.586l4.121 4.121A2 2 0 0 1 14 6.121V14a2 2 0 0 1-2 2H4a2 2 0 0 1-2-2V2Z"/>
  <path fill="#E0DFDF" d="M8 4V.5h1V4a1 1 0 0 0 1 1h3.5v1H10a2 2 0 0 1-2-2Z"/>
  <path fill="#4CC2FF" d="M4 6.5a.5.5 0 0 1 .5-.5h2a.5.5 0 0 1 0 1H6v6h.5a.5.5 0 0 1 0 1h-2a.5.5 0 0 1 0-1H5V7h-.5a.5.5 0 0 1-.5-.5Z"/>
</svg>
