<svg xmlns="http://www.w3.org/2000/svg" fill="none" viewBox="0 0 16 16">
  <path fill="#E0DFDF" d="M1.437 11.696 2.467 5h11.989l-.55 3.574.93.531.715-4.649A3 3 0 0 0 12.586 1H4.645A3 3 0 0 0 1.68 3.544l-1.231 8A3 3 0 0 0 3.414 15h3.364a2.323 2.323 0 0 1-.028-.361V14H3.414a2 2 0 0 1-1.977-2.304ZM4.645 2h7.94a2 2 0 0 1 2.001 2H2.621l.047-.304A2 2 0 0 1 4.645 2Z"/>
  <path fill="#4CC2FF" d="M9.496 7.493A1 1 0 0 0 8 8.362v6.276a1 1 0 0 0 1.496.869l5.492-3.139a1 1 0 0 0 0-1.736L9.496 7.493Z"/>
</svg>
