<svg xmlns="http://www.w3.org/2000/svg" fill="none" viewBox="0 0 16 16">
  <g clip-path="url(#a)">
    <path fill="#4CC2FF" d="M3.677 11.932c0-.433.023-.864.068-1.292.05-.433.132-.86.246-1.279l-.383.014h-.376c-.323 0-.633-.055-.93-.164a2.479 2.479 0 0 1-.772-.458 2.33 2.33 0 0 1-.526-.711 2.186 2.186 0 0 1-.192-.923c0-.146.014-.292.042-.437L1.4 3.626c.078-.433.224-.832.438-1.196A3.68 3.68 0 0 1 3.71.85 3.516 3.516 0 0 1 5.447.66c.16.022.317.054.472.095l4.505 1.244a1.997 1.997 0 0 1 .937.581c.127.132.234.283.32.451.087.164.149.34.185.527l.287 1.435c.023.128.034.249.034.362 0 .242-.043.47-.13.684a2.29 2.29 0 0 1-.348.581 2.622 2.622 0 0 1-.506.472 3.12 3.12 0 0 1-.595.342 4.7 4.7 0 0 0-.348.17 1.83 1.83 0 0 0-.322.226A8.51 8.51 0 0 0 8.36 9.655c-.21.324-.405.661-.588 1.012-.182.35-.369.72-.56 1.107-.16.329-.3.661-.424.999-.118.337-.244.676-.376 1.018a1.373 1.373 0 0 1-.444.602c-.2.154-.438.232-.711.232-.164 0-.31-.03-.438-.089a1.342 1.342 0 0 1-.362-.266 2.583 2.583 0 0 1-.403-.513c-.1-.182-.18-.372-.24-.567a3.333 3.333 0 0 1-.109-.609 7.5 7.5 0 0 1-.027-.65Zm7.636-6.577a.91.91 0 0 0-.021-.19l-.28-1.436a1.104 1.104 0 0 0-.287-.561 1.122 1.122 0 0 0-.534-.328L5.687 1.596a1.968 1.968 0 0 0-.363-.075 3.16 3.16 0 0 0-.362-.021c-.333 0-.65.06-.95.178a2.754 2.754 0 0 0-1.415 1.196 2.727 2.727 0 0 0-.335.91l-.547 3.055a1.413 1.413 0 0 0-.028.273 1.324 1.324 0 0 0 .452 1.012c.141.119.303.212.485.28.182.064.374.096.574.096.132 0 .262-.002.39-.007.127-.004.257-.007.39-.007.123 0 .237.023.341.069.11.04.203.102.28.184a.824.824 0 0 1 .192.274.78.78 0 0 1 .075.341.377.377 0 0 1-.013.103.589.589 0 0 0-.007.096.363.363 0 0 0-.02.075.183.183 0 0 1-.014.068c-.083.37-.146.736-.192 1.1a8.974 8.974 0 0 0-.055 1.594c.01.16.032.314.069.464.04.146.095.29.164.431a1.536 1.536 0 0 0 .362.444c.027.014.06.021.096.021a.283.283 0 0 0 .198-.075.586.586 0 0 0 .13-.171c.05-.105.091-.212.123-.321a5.31 5.31 0 0 1 .103-.329c.191-.55.417-1.089.676-1.613.26-.528.534-1.048.82-1.558a9.444 9.444 0 0 1 2.045-2.502 2.45 2.45 0 0 1 .444-.315c.155-.086.319-.168.492-.246.128-.055.253-.123.376-.205a1.491 1.491 0 0 0 .56-.636c.06-.132.09-.273.09-.424Z"/>
  </g>
  <defs>
    <clipPath id="a">
      <path fill="#fff" d="M0 0h13v15H0z"/>
    </clipPath>
  </defs>
</svg>
