<svg xmlns="http://www.w3.org/2000/svg" fill="none" viewBox="0 0 16 16">
  <g clip-path="url(#a)">
    <path fill="#E0DFDF" d="M2.5 7a.5.5 0 1 1 0-1 .5.5 0 0 1 0 1ZM3 2.5a.5.5 0 1 0-1 0 .5.5 0 0 0 1 0Zm3 0a.5.5 0 1 0-1 0 .5.5 0 0 0 1 0ZM2.5 4a.5.5 0 1 1 0 1 .5.5 0 0 1 0-1Zm7 3a.5.5 0 1 0 0-1 .5.5 0 0 0 0 1Z"/>
    <path fill="#E0DFDF" d="M1.5 8H4v2.5A1.5 1.5 0 0 0 5.5 12H9v2.5a1.5 1.5 0 0 0 1.5 1.5h4a1.5 1.5 0 0 0 1.5-1.5v-4.086a1.5 1.5 0 0 0-.44-1.06l-1.914-1.915A1.5 1.5 0 0 0 12.586 7H12V5.5A1.5 1.5 0 0 0 10.5 4H8V1.5A1.5 1.5 0 0 0 6.5 0h-5A1.5 1.5 0 0 0 0 1.5v5A1.5 1.5 0 0 0 1.5 8Zm0-7h5a.5.5 0 0 1 .5.5V4H5.5A1.5 1.5 0 0 0 4 5.5V7H1.5a.5.5 0 0 1-.5-.5v-5a.5.5 0 0 1 .5-.5ZM9 9.707V11H5.707l1.94-1.94a.5.5 0 0 1 .707 0L9 9.708ZM10.5 7a1.5 1.5 0 0 0-1.488 1.307 1.5 1.5 0 0 0-2.073.047L5 10.293V5.5a.5.5 0 0 1 .5-.5h5a.5.5 0 0 1 .5.5V7h-.5Zm0 1H12v1.5a1.5 1.5 0 0 0 1.5 1.5H15v3.5a.5.5 0 0 1-.5.5h-4a.5.5 0 0 1-.5-.5v-6a.5.5 0 0 1 .5-.5Zm2.5.207L14.793 10H13.5a.5.5 0 0 1-.5-.5V8.207Z"/>
  </g>
  <defs>
    <clipPath id="a">
      <path fill="#fff" d="M0 0h16v16H0z"/>
    </clipPath>
  </defs>
</svg>
