<svg xmlns="http://www.w3.org/2000/svg" fill="none" viewBox="0 0 16 16">
  <path fill="#E0DFDF" d="M2 2a1 1 0 0 1 1-1h3.879a1 1 0 0 1 .707.293l4.121 4.121a1 1 0 0 1 .293.707V10h1V6.121a2 2 0 0 0-.586-1.414L8.293.586A2 2 0 0 0 6.879 0H3a2 2 0 0 0-2 2v12a2 2 0 0 0 2 2h.268A1.99 1.99 0 0 1 3 15a1 1 0 0 1-1-1V2Z"/>
  <path fill="#E0DFDF" d="M7 4V.5h1V4a1 1 0 0 0 1 1h3.5v1H9a2 2 0 0 1-2-2Z"/>
  <path fill="#4CC2FF" d="M5.5 12a.5.5 0 0 0-.5.5v2a.5.5 0 0 0 .5.5h9a.5.5 0 0 0 .5-.5v-2a.5.5 0 0 0-.5-.5h-9Zm-1.5.5A1.5 1.5 0 0 1 5.5 11h9a1.5 1.5 0 0 1 1.5 1.5v2a1.5 1.5 0 0 1-1.5 1.5h-9A1.5 1.5 0 0 1 4 14.5v-2Z"/>
  <path fill="#4CC2FF" d="M4.5 14.5v-2a1 1 0 0 1 1-1h8l-2 4h-6a1 1 0 0 1-1-1Z"/>
</svg>
