<svg xmlns="http://www.w3.org/2000/svg" fill="none" viewBox="0 0 16 16">
  <path fill="#E0DFDF" d="M7.5 7a.5.5 0 0 1 .5.5v3a.5.5 0 0 1-1 0v-3a.5.5 0 0 1 .5-.5Z"/>
  <path fill="#E0DFDF" d="M0 4a2 2 0 0 1 2-2h11a2 2 0 0 1 2 2v2a2 2 0 0 1-2 2H2a2 2 0 0 1-2-2V4Zm2-1a1 1 0 0 0-1 1v2a1 1 0 0 0 1 1h11a1 1 0 0 0 1-1V4a1 1 0 0 0-1-1H2Z"/>
  <path fill="#E0DFDF" d="M12 4.75a.75.75 0 1 1-1.5 0 .75.75 0 0 1 1.5 0ZM0 12.5a.5.5 0 0 1 .5-.5h4a.5.5 0 0 1 0 1h-4a.5.5 0 0 1-.5-.5Zm10 0a.5.5 0 0 1 .5-.5h4a.5.5 0 0 1 0 1h-4a.5.5 0 0 1-.5-.5Z"/>
  <path fill="#4CC2FF" d="M6 11a1 1 0 0 1 1-1h1a1 1 0 0 1 1 1h1a1 1 0 0 1 1 1v1a1 1 0 0 1-1 1H5a1 1 0 0 1-1-1v-1a1 1 0 0 1 1-1h1Zm2 0H7v.5a.5.5 0 0 1-.5.5H5v1h5v-1H8.5a.5.5 0 0 1-.5-.5V11Z"/>
</svg>
