<svg xmlns="http://www.w3.org/2000/svg" fill="none" viewBox="0 0 16 16">
  <path fill="#E0DFDF" d="M8.25 7.5a.75.75 0 1 0-1.5 0 .75.75 0 0 0 1.5 0Z"/>
  <path fill="#E0DFDF" d="M6 0h3a2 2 0 0 1 2 2v7a2 2 0 0 1-2 2H8v1.5a.5.5 0 0 1-1 0V11H6a2 2 0 0 1-2-2V2a2 2 0 0 1 2-2Zm3 1H6a1 1 0 0 0-1 1v7a1 1 0 0 0 1 1h3a1 1 0 0 0 1-1V2a1 1 0 0 0-1-1ZM0 14.5a.5.5 0 0 1 .5-.5h4a.5.5 0 0 1 0 1h-4a.5.5 0 0 1-.5-.5Zm10.5-.5a.5.5 0 0 0 0 1h4a.5.5 0 0 0 0-1h-4Z"/>
  <path stroke="#4CC2FF" stroke-linecap="round" stroke-linejoin="round" d="M4.5 14a.5.5 0 0 1 .5-.5h1.5V13a.5.5 0 0 1 .5-.5h1a.5.5 0 0 1 .5.5v.5H10a.5.5 0 0 1 .5.5v1a.5.5 0 0 1-.5.5H5a.5.5 0 0 1-.5-.5v-1Z"/>
</svg>
