<svg xmlns="http://www.w3.org/2000/svg" fill="none" viewBox="0 0 16 16">
  <path stroke="#E0DFDF" d="M13 2.5H3A2.5 2.5 0 0 0 .5 5v6A2.5 2.5 0 0 0 3 13.5h10a2.5 2.5 0 0 0 2.5-2.5V5A2.5 2.5 0 0 0 13 2.5Z"/>
  <path fill="#4CC2FF" fill-rule="evenodd" d="M2.363 4.02a.5.5 0 0 1 .618.343l2 7a.5.5 0 0 1-.962.274l-2-7a.5.5 0 0 1 .344-.618Zm3 0a.5.5 0 0 1 .618.343l2 7a.5.5 0 0 1-.962.274l-2-7a.5.5 0 0 1 .344-.618Z"/>
  <path fill="#4CC2FF" d="M11 11.25a.75.75 0 1 1-1.5 0 .75.75 0 0 1 1.5 0Zm2.5 0a.75.75 0 1 1-1.5 0 .75.75 0 0 1 1.5 0Z"/>
  <path fill="#E0DFDF" d="M0 5a3 3 0 0 1 3-3h10a3 3 0 0 1 3 3v6a3 3 0 0 1-3 3H3a3 3 0 0 1-3-3V5Zm3-2a2 2 0 0 0-2 2v6a2 2 0 0 0 2 2h10a2 2 0 0 0 2-2V5a2 2 0 0 0-2-2H3Z"/>
  <path fill="#4CC2FF" d="M2.363 4.02a.5.5 0 0 1 .618.343l2 7a.5.5 0 0 1-.962.274l-2-7a.5.5 0 0 1 .344-.618Zm3 0a.5.5 0 0 1 .618.343l2 7a.5.5 0 0 1-.962.274l-2-7a.5.5 0 0 1 .344-.618ZM11 11.25a.75.75 0 1 1-1.5 0 .75.75 0 0 1 1.5 0Zm2.5 0a.75.75 0 1 1-1.5 0 .75.75 0 0 1 1.5 0Z"/>
</svg>
