<svg xmlns="http://www.w3.org/2000/svg" fill="none" viewBox="0 0 16 16">
  <path fill="#E0DFDF" d="M1 2.5A1.5 1.5 0 0 1 2.5 1h8A1.5 1.5 0 0 1 12 2.5v5A1.5 1.5 0 0 1 10.5 9h-8A1.5 1.5 0 0 1 1 7.5v-5ZM2.5 2a.5.5 0 0 0-.5.5v5a.5.5 0 0 0 .5.5h8a.5.5 0 0 0 .5-.5v-5a.5.5 0 0 0-.5-.5h-8Zm5 8.5a.5.5 0 0 1 .5.5v1.5a.5.5 0 0 1-1 0V11a.5.5 0 0 1 .5-.5Zm-7.5 4a.5.5 0 0 1 .5-.5h4a.5.5 0 0 1 0 1h-4a.5.5 0 0 1-.5-.5Zm10 0a.5.5 0 0 1 .5-.5h4a.5.5 0 0 1 0 1h-4a.5.5 0 0 1-.5-.5Z"/>
  <path fill="#4CC2FF" d="M6 13a1 1 0 0 1 1-1h1a1 1 0 0 1 1 1h1a1 1 0 0 1 1 1v1a1 1 0 0 1-1 1H5a1 1 0 0 1-1-1v-1a1 1 0 0 1 1-1h1Zm2 0H7v.5a.5.5 0 0 1-.5.5H5v1h5v-1H8.5a.5.5 0 0 1-.5-.5V13Z"/>
  <path fill="#E0DFDF" d="M3.085 10A1.5 1.5 0 0 0 4.5 11h7A2.5 2.5 0 0 0 14 8.5v-4a1.5 1.5 0 0 0-1-1.415V8.5a1.5 1.5 0 0 1-1.5 1.5H3.085Z"/>
</svg>
