<svg xmlns="http://www.w3.org/2000/svg" fill="none" viewBox="0 0 16 16">
  <g clip-path="url(#a)">
    <path fill="#E0DFDF" d="M15 2a.5.5 0 0 1 0 1h-.554L13.15 14.23A2 2 0 0 1 11.163 16H4.837a2 2 0 0 1-1.987-1.77L1.553 3H1a.5.5 0 0 1-.492-.41L.5 2.5A.5.5 0 0 1 1 2h14Zm-1.562 1H2.561l1.283 11.115a1 1 0 0 0 .993.885h6.326a1 1 0 0 0 .993-.885L13.438 3Z"/>
    <path fill="#E0DFDF" d="M8 1a1.5 1.5 0 0 0-1.5 1.5h-1a2.5 2.5 0 0 1 5 0h-1A1.5 1.5 0 0 0 8 1ZM6.5 6a.5.5 0 0 1 .5.5v5a.5.5 0 0 1-1 0v-5a.5.5 0 0 1 .5-.5Zm3 0a.5.5 0 0 1 .5.5v5a.5.5 0 0 1-1 0v-5a.5.5 0 0 1 .5-.5Z"/>
  </g>
  <defs>
    <clipPath id="a">
      <path fill="#fff" d="M0 0h16v16H0z"/>
    </clipPath>
  </defs>
</svg>
