<svg xmlns="http://www.w3.org/2000/svg" fill="none" viewBox="0 0 16 16">
  <g clip-path="url(#a)">
    <g clip-path="url(#b)">
      <path fill="#4CC2FF" d="M13.5 0a.5.5 0 0 1 .5.5v5a.5.5 0 0 1-.5.5h-5a.5.5 0 0 1 0-1H13V.5a.5.5 0 0 1 .5-.5Z"/>
      <path fill="#4CC2FF" d="M7.188 1.18a4.001 4.001 0 0 1 1.371.746l4.493 3.744a.5.5 0 0 0 .64-.768L9.2 1.157a5 5 0 0 0-6.4 7.685h.001l8.377 7.04a.5.5 0 1 0 .644-.765l-8.38-7.041-.001-.002A4 4 0 0 1 7.188 1.18Z"/>
    </g>
  </g>
  <defs>
    <clipPath id="a">
      <path fill="#fff" d="M0 0h16v16H0z"/>
    </clipPath>
    <clipPath id="b">
      <path fill="#fff" d="M0 0h16v16H0z"/>
    </clipPath>
  </defs>
</svg>
