<svg xmlns="http://www.w3.org/2000/svg" fill="none" viewBox="0 0 16 16">
  <path fill="#E0DFDF" d="M4.5 4a.5.5 0 0 1 .5.5V7h4.5a.5.5 0 0 1 0 1H5v4a1 1 0 0 0 1 1h3.5a.5.5 0 0 1 0 1H6a2 2 0 0 1-2-2V4.5a.5.5 0 0 1 .5-.5Z"/>
  <path fill="#4CC2FF" d="M2 1a1 1 0 0 1 1-1h3a1 1 0 0 1 1 1v3a1 1 0 0 1-1 1H3a1 1 0 0 1-1-1V1Zm4 0H3v3h3V1Zm3 5a1 1 0 0 1 1-1h3a1 1 0 0 1 1 1v3a1 1 0 0 1-1 1h-3a1 1 0 0 1-1-1V6Zm4 0h-3v3h3V6Zm-4 6a1 1 0 0 1 1-1h3a1 1 0 0 1 1 1v3a1 1 0 0 1-1 1h-3a1 1 0 0 1-1-1v-3Zm4 0h-3v3h3v-3Z"/>
</svg>
