<svg xmlns="http://www.w3.org/2000/svg" fill="none" viewBox="0 0 16 16">
  <g clip-path="url(#a)">
    <path fill="#4CC2FF" d="M3.146 9.146a.5.5 0 0 1 .708 0l3 3a.5.5 0 0 1-.708.708L4 10.707V15.5a.5.5 0 0 1-1 0v-4.793L.854 12.854a.5.5 0 0 1-.708-.708l3-3Zm.708-2.292a.5.5 0 0 1-.708 0l-3-3a.5.5 0 1 1 .708-.708L3 5.293V.5a.5.5 0 0 1 1 0v4.793l2.146-2.147a.5.5 0 1 1 .708.708l-3 3Z"/>
    <path fill="#E0DFDF" d="M9 3.5a.5.5 0 0 1 .5-.5h6a.5.5 0 0 1 0 1h-6a.5.5 0 0 1-.5-.5Zm0 3a.5.5 0 0 1 .5-.5h6a.5.5 0 0 1 0 1h-6a.5.5 0 0 1-.5-.5Zm0 3a.5.5 0 0 1 .5-.5h6a.5.5 0 0 1 0 1h-6a.5.5 0 0 1-.5-.5Zm0 3a.5.5 0 0 1 .5-.5h6a.5.5 0 0 1 0 1h-6a.5.5 0 0 1-.5-.5Z"/>
  </g>
  <defs>
    <clipPath id="a">
      <path fill="#fff" d="M0 0h16v16H0z"/>
    </clipPath>
  </defs>
</svg>
