<svg xmlns="http://www.w3.org/2000/svg" fill="none" viewBox="0 0 16 16">
  <path fill="#E0DFDF" d="M4.011 4.007v4.99c0 1.102.893 1.995 1.995 1.995h.997v.997a.997.997 0 0 0-.997.997h-.998a.997.997 0 0 0-.997.997H.521a.499.499 0 1 0 0 .997h3.49c0 .551.447.998.997.998h4.986a.998.998 0 0 0 .998-.998h3.49a.497.497 0 0 0 .355-.148l-.85-.849h-2.995a.997.997 0 0 0-.998-.997h-.997A.997.997 0 0 0 8 11.989v-.997h.997a1.99 1.99 0 0 0 1.413-.587L9.705 9.7a.994.994 0 0 1-.708.294H6.006a.997.997 0 0 1-.998-.997V5.004l-.997-.997Zm2.493 9.976a.499.499 0 0 0 .499-.498v-.499H8v.499c0 .275.223.498.499.498h1.495v.997H5.008v-.997h1.496Zm3.49-6.109V2.017a.997.997 0 0 0-.997-.997H6.006a.997.997 0 0 0-.998.997v.871l-.993-.993A1.995 1.995 0 0 1 6.005.022h2.992c1.102 0 1.995.893 1.995 1.995v6.855l-.998-.998Z"/>
  <path fill="#E0DFDF" d="M6.975 6.97a.748.748 0 1 0 1.058 1.058L6.975 6.97Z"/>
  <path fill="#4CC2FF" d="M.173.168a.499.499 0 0 1 .706 0l14.957 14.958a.499.499 0 1 1-.705.706L.173.874a.499.499 0 0 1 0-.706Z"/>
</svg>
