<svg xmlns="http://www.w3.org/2000/svg" fill="none" viewBox="0 0 16 16">
  <g clip-path="url(#a)">
    <path fill="#E0DFDF" d="M4 1a3 3 0 0 0-3 3v8a3 3 0 0 0 3 3h1.901l.25-1H4a2 2 0 0 1-2-2V5h12v.757a3.07 3.07 0 0 1 1 .095V4a3 3 0 0 0-3-3H4ZM2 4a2 2 0 0 1 2-2h8a2 2 0 0 1 2 2H2Z"/>
    <path fill="#E0DFDF" d="M11.535 7.155a1 1 0 0 0-1.372 1.391c.231-.235.478-.488.741-.76l-.002-.001.633-.63Zm-2.99 3.007a1 1 0 0 0-1.393 1.369c.194-.202.45-.451.795-.786.176-.17.374-.363.598-.583ZM5 9a1 1 0 1 0 0-2 1 1 0 0 0 0 2Zm1 2a1 1 0 1 1-2 0 1 1 0 0 1 2 0Zm2.556-2.169A1 1 0 1 1 7.444 7.17a1 1 0 0 1 1.112 1.66Z"/>
    <path fill="#4CC2FF" d="m15.425 10.19-.175.175-2.579-2.579.253-.252a1.823 1.823 0 0 1 2.544-.033A1.763 1.763 0 0 1 16 8.855a1.996 1.996 0 0 1-.574 1.334Zm-7.522 2.365 3.883-3.884 2.579 2.579-3.884 3.884a.696.696 0 0 1-.323.183l-2.69.672a.35.35 0 0 1-.421-.422l.673-2.689a.696.696 0 0 1 .183-.323Z"/>
  </g>
  <defs>
    <clipPath id="a">
      <path fill="#fff" d="M0 0h16v16H0z"/>
    </clipPath>
  </defs>
</svg>
