<svg xmlns="http://www.w3.org/2000/svg" fill="none" viewBox="0 0 16 16">
  <g clip-path="url(#a)">
    <path fill="#E0DFDF" d="M0 2a2 2 0 0 1 2-2h.5a.5.5 0 0 1 0 1H2a1 1 0 0 0-1 1v.5a.5.5 0 0 1-1 0V2ZM4.5.5A.5.5 0 0 1 5 0h2a.5.5 0 0 1 0 1H5a.5.5 0 0 1-.5-.5ZM9 .5a.5.5 0 0 1 .5-.5h2a.5.5 0 0 1 0 1h-2A.5.5 0 0 1 9 .5Zm4 0a.5.5 0 0 1 .5-.5h.5a2 2 0 0 1 2 2v.5a.5.5 0 0 1-1 0V2a1 1 0 0 0-1-1h-.5a.5.5 0 0 1-.5-.5ZM.5 4a.5.5 0 0 1 .5.5v2a.5.5 0 0 1-1 0v-2A.5.5 0 0 1 .5 4Zm15 0a.5.5 0 0 1 .5.5v2a.5.5 0 0 1-1 0v-2a.5.5 0 0 1 .5-.5ZM.5 8.5A.5.5 0 0 1 1 9v2a.5.5 0 0 1-1 0V9a.5.5 0 0 1 .5-.5Zm15 0a.5.5 0 0 1 .5.5v2a.5.5 0 0 1-1 0V9a.5.5 0 0 1 .5-.5ZM.5 13a.5.5 0 0 1 .5.5v.5a1 1 0 0 0 1 1h.5a.5.5 0 0 1 0 1H2a2 2 0 0 1-2-2v-.5a.5.5 0 0 1 .5-.5Zm15 0a.5.5 0 0 1 .5.5v.5a2 2 0 0 1-2 2h-.5a.5.5 0 0 1 0-1h.5a1 1 0 0 0 1-1v-.5a.5.5 0 0 1 .5-.5Zm-11 2.5A.5.5 0 0 1 5 15h2a.5.5 0 0 1 0 1H5a.5.5 0 0 1-.5-.5Zm4.5 0a.5.5 0 0 1 .5-.5h2a.5.5 0 0 1 0 1h-2a.5.5 0 0 1-.5-.5Z"/>
    <path fill="#4CC2FF" d="M5.5 2.5h-2a1 1 0 0 0-1 1v2a1 1 0 0 0 1 1h2a1 1 0 0 0 1-1v-2a1 1 0 0 0-1-1Zm0 7h-2a1 1 0 0 0-1 1v2a1 1 0 0 0 1 1h2a1 1 0 0 0 1-1v-2a1 1 0 0 0-1-1Zm7-7h-2a1 1 0 0 0-1 1v2a1 1 0 0 0 1 1h2a1 1 0 0 0 1-1v-2a1 1 0 0 0-1-1Zm0 7h-2a1 1 0 0 0-1 1v2a1 1 0 0 0 1 1h2a1 1 0 0 0 1-1v-2a1 1 0 0 0-1-1Z"/>
    <path fill="#4CC2FF" d="M2 3.5A1.5 1.5 0 0 1 3.5 2h2A1.5 1.5 0 0 1 7 3.5v2A1.5 1.5 0 0 1 5.5 7h-2A1.5 1.5 0 0 1 2 5.5v-2ZM3.5 3a.5.5 0 0 0-.5.5v2a.5.5 0 0 0 .5.5h2a.5.5 0 0 0 .5-.5v-2a.5.5 0 0 0-.5-.5h-2Zm5.5.5A1.5 1.5 0 0 1 10.5 2h2A1.5 1.5 0 0 1 14 3.5v2A1.5 1.5 0 0 1 12.5 7h-2A1.5 1.5 0 0 1 9 5.5v-2Zm1.5-.5a.5.5 0 0 0-.5.5v2a.5.5 0 0 0 .5.5h2a.5.5 0 0 0 .5-.5v-2a.5.5 0 0 0-.5-.5h-2ZM2 10.5A1.5 1.5 0 0 1 3.5 9h2A1.5 1.5 0 0 1 7 10.5v2A1.5 1.5 0 0 1 5.5 14h-2A1.5 1.5 0 0 1 2 12.5v-2Zm1.5-.5a.5.5 0 0 0-.5.5v2a.5.5 0 0 0 .5.5h2a.5.5 0 0 0 .5-.5v-2a.5.5 0 0 0-.5-.5h-2Zm5.5.5A1.5 1.5 0 0 1 10.5 9h2a1.5 1.5 0 0 1 1.5 1.5v2a1.5 1.5 0 0 1-1.5 1.5h-2A1.5 1.5 0 0 1 9 12.5v-2Zm1.5-.5a.5.5 0 0 0-.5.5v2a.5.5 0 0 0 .5.5h2a.5.5 0 0 0 .5-.5v-2a.5.5 0 0 0-.5-.5h-2Z"/>
  </g>
  <defs>
    <clipPath id="a">
      <path fill="#fff" d="M0 0h16v16H0z"/>
    </clipPath>
  </defs>
</svg>
