<svg xmlns="http://www.w3.org/2000/svg" fill="none" viewBox="0 0 16 16">
  <g clip-path="url(#a)">
    <path fill="#E0DFDF" d="M5.274 11.433.707 16l-.002-.002H.002v-.703L0 15.293l4.567-4.567.707.707Z"/>
    <path fill="#E0DFDF" d="M4.896 5.603 1.314 7.036a.5.5 0 0 0-.168.817l7 7a.5.5 0 0 0 .833-.21l1.144-3.813-.803-.803-1.058 3.527L2.39 7.683l3.275-1.31-.77-.77Zm4.615 3.908.775.775.057-.189a.5.5 0 0 1 .194-.267l-.71-.711a1.5 1.5 0 0 0-.316.392ZM6.64 5.932a1.5 1.5 0 0 1-.327.181l-.143.057-.769-.769.505-.202.734.733Zm4.122 2.708 3.667-1.527a.5.5 0 0 0 .162-.815L9.666 1.374l-.205-.124a.5.5 0 0 0-.604.27l-1.63 3.587-.755-.756 1.475-3.244a1.5 1.5 0 0 1 2.425-.44l4.925 4.924a1.501 1.501 0 0 1-.484 2.445l-3.287 1.37-.765-.765Z"/>
    <path fill="#4CC2FF" d="M.146.146a.5.5 0 0 1 .708 0l15 15a.5.5 0 0 1-.708.708l-15-15a.5.5 0 0 1 0-.708Z"/>
  </g>
  <defs>
    <clipPath id="a">
      <path fill="#fff" d="M0 0h16v16H0z"/>
    </clipPath>
  </defs>
</svg>
