<svg xmlns="http://www.w3.org/2000/svg" fill="none" viewBox="0 0 16 16">
  <path fill="#E0DFDF" d="M7.467 1.49A4.98 4.98 0 0 1 10.988.031h.003a4.93 4.93 0 0 1 2.225.546.498.498 0 0 1 .124.795l-2.643 2.644 1.287 1.287 2.644-2.643a.498.498 0 0 1 .795.124c.354.689.54 1.45.546 2.225v.003a4.98 4.98 0 0 1-4.98 4.98h-.008a4.934 4.934 0 0 1-1.128-.147l-5.358 5.357a2.616 2.616 0 1 1-3.698-3.697l5.358-5.358a4.932 4.932 0 0 1-.147-1.128v-.007A4.98 4.98 0 0 1 7.467 1.49Zm3.52-.463a3.984 3.984 0 0 0-3.983 3.981c.006.385.068.767.185 1.133a.498.498 0 0 1-.123.504L1.501 12.21A1.622 1.622 0 0 0 1.5 14.5a1.62 1.62 0 0 0 2.29 0l5.565-5.565a.498.498 0 0 1 .503-.123c.367.117.75.18 1.134.185a3.984 3.984 0 0 0 3.98-3.983 3.932 3.932 0 0 0-.17-1.119L12.337 6.36a.498.498 0 0 1-.705 0L9.64 4.368a.498.498 0 0 1 0-.705l2.466-2.465a3.934 3.934 0 0 0-1.12-.17Z"/>
</svg>
