<svg xmlns="http://www.w3.org/2000/svg" fill="none" viewBox="0 0 16 16">
  <path fill="#4CC2FF" d="M11.136 3.693c0 .433-.023.864-.069 1.292-.05.433-.132.86-.246 1.279l.383-.014h.376c.324 0 .633.055.93.164.291.11.549.262.772.458.219.2.394.438.527.711.127.278.191.586.191.923 0 .146-.014.292-.041.437L13.412 12a3.59 3.59 0 0 1-.437 1.196 3.677 3.677 0 0 1-1.873 1.58 3.517 3.517 0 0 1-1.737.19 4.123 4.123 0 0 1-.471-.095l-4.505-1.244a1.997 1.997 0 0 1-.937-.581 1.882 1.882 0 0 1-.321-.451 1.9 1.9 0 0 1-.185-.527l-.287-1.435a2.063 2.063 0 0 1-.034-.362c0-.242.043-.47.13-.684a2.29 2.29 0 0 1 .349-.581c.145-.178.314-.335.505-.472a3.12 3.12 0 0 1 .595-.342c.123-.054.24-.111.349-.17.11-.06.216-.135.321-.226a8.512 8.512 0 0 0 1.58-1.825c.209-.324.405-.661.587-1.012.182-.35.37-.72.56-1.107.16-.329.301-.661.424-.998.119-.338.244-.677.376-1.019.096-.246.244-.447.445-.602.2-.155.437-.232.71-.232.165 0 .31.03.438.089.123.06.244.148.362.266.165.165.299.335.404.513.1.182.18.372.239.568.055.196.091.398.11.608a7.6 7.6 0 0 1 .027.65ZM3.5 10.27c0 .063.007.127.02.19l.28 1.436c.042.215.138.401.288.561.146.16.323.269.533.328l4.505 1.244c.118.037.24.062.362.075.119.014.24.021.363.021.332 0 .649-.06.95-.178a2.756 2.756 0 0 0 1.415-1.196 2.72 2.72 0 0 0 .335-.91l.547-3.055a1.432 1.432 0 0 0 .027-.273 1.325 1.325 0 0 0-.451-1.012 1.648 1.648 0 0 0-.486-.28 1.726 1.726 0 0 0-.574-.096c-.132 0-.262.002-.39.007-.127.004-.257.007-.389.007a.848.848 0 0 1-.342-.069.734.734 0 0 1-.28-.184.825.825 0 0 1-.191-.274.782.782 0 0 1-.076-.341c0-.037.005-.071.014-.103a.589.589 0 0 0 .007-.096.363.363 0 0 0 .02-.075c0-.023.005-.045.014-.068.082-.37.146-.736.191-1.1a8.97 8.97 0 0 0 .055-1.594 2.593 2.593 0 0 0-.068-.464 2.605 2.605 0 0 0-.164-.431 1.534 1.534 0 0 0-.363-.444.211.211 0 0 0-.095-.021.283.283 0 0 0-.199.075.586.586 0 0 0-.13.171 2.28 2.28 0 0 0-.123.321 5.572 5.572 0 0 1-.102.329c-.191.55-.417 1.089-.677 1.613-.26.528-.533 1.048-.82 1.558a9.439 9.439 0 0 1-2.044 2.502 2.485 2.485 0 0 1-.444.315 6.19 6.19 0 0 1-.493.246 2.34 2.34 0 0 0-.376.205 1.493 1.493 0 0 0-.56.636 1.01 1.01 0 0 0-.089.424Z"/>
</svg>
