<svg xmlns="http://www.w3.org/2000/svg" fill="none" viewBox="0 0 16 16">
  <g clip-path="url(#a)">
    <path fill="#E0DFDF" d="M3 2a1 1 0 0 1 1-1h3.879c.04 0 .081.002.121.007V4a2 2 0 0 0 2 2h2.993a.97.97 0 0 1 .007.121V14a1 1 0 0 1-1 1h-1.825c.097.326.097.674 0 1H12a2 2 0 0 0 2-2V6.121a2 2 0 0 0-.586-1.414L9.293.586A2 2 0 0 0 7.879 0H4a2 2 0 0 0-2 2v3.99c.32-.105.654-.178 1-.214V2Zm9.293 3H10a1 1 0 0 1-1-1V1.707L12.293 5Z"/>
    <path fill="#4CC2FF" d="M5.594 13.303a3.5 3.5 0 1 1 .707-.707l2.55 2.55a.5.5 0 0 1-.707.708l-2.55-2.55Zm.404-2.803a2.5 2.5 0 1 0-5 0 2.5 2.5 0 0 0 5 0Z"/>
  </g>
  <defs>
    <clipPath id="a">
      <path fill="#fff" d="M0 0h16v16H0z"/>
    </clipPath>
  </defs>
</svg>
