<svg viewBox="0 0 12 13" fill="none" xmlns="http://www.w3.org/2000/svg">
<path d="M2 0C0.89543 0 0 0.895431 0 2V7.99729C0 9.10186 0.89543 9.99729 2 9.99729H4.005V11.008L2.50598 11.008C2.22984 11.008 2.00598 11.2319 2.00599 11.508C2.00599 11.7841 2.22985 12.008 2.50599 12.008L9.50213 12.0079C9.77827 12.0079 10.0021 11.7841 10.0021 11.5079C10.0021 11.2318 9.77826 11.0079 9.50212 11.0079L8.00293 11.0079V9.99729H10C11.1046 9.99729 12 9.10186 12 7.99729V2C12 0.89543 11.1046 0 10 0H2ZM7.00293 9.99729V11.008L5.005 11.008V9.99729H7.00293ZM1 2C1 1.44772 1.44772 1 2 1H10C10.5523 1 11 1.44772 11 2V7.99729C11 8.54957 10.5523 8.99729 10 8.99729H2C1.44772 8.99729 1 8.54957 1 7.99729V2Z" fill="black" fill-opacity="0.6063"/>
</svg>
