<svg viewBox="0 0 12 14" fill="none" xmlns="http://www.w3.org/2000/svg">
<path d="M5.31299 1.26164C5.69849 0.897163 6.30151 0.897163 6.68701 1.26164L11.5305 5.84098C11.8302 6.12431 12 6.51853 12 6.93094V12.5002C12 13.3286 11.3284 14.0002 10.5 14.0002H8.5C7.67157 14.0002 7 13.3286 7 12.5002V10.0002C7 9.72407 6.77614 9.50021 6.5 9.50021H5.5C5.22386 9.50021 5 9.72407 5 10.0002V12.5002C5 13.3286 4.32843 14.0002 3.5 14.0002H1.5C0.671573 14.0002 0 13.3286 0 12.5002V6.93094C0 6.51853 0.169802 6.12431 0.46948 5.84098L5.31299 1.26164ZM6 1.98828L1.15649 6.56762C1.0566 6.66207 1 6.79347 1 6.93094V12.5002C1 12.7763 1.22386 13.0002 1.5 13.0002H3.5C3.77614 13.0002 4 12.7763 4 12.5002V10.0002C4 9.17179 4.67157 8.50022 5.5 8.50022H6.5C7.32843 8.50022 8 9.17179 8 10.0002V12.5002C8 12.7763 8.22386 13.0002 8.5 13.0002H10.5C10.7761 13.0002 11 12.7763 11 12.5002V6.93094C11 6.79347 10.9434 6.66207 10.8435 6.56762L6 1.98828Z" fill="black" fill-opacity="0.6063"/>
</svg>
