<svg xmlns="http://www.w3.org/2000/svg" fill="none" viewBox="0 0 16 16">
  <path fill="#FAFAFA" d="M2 .5h12A1.5 1.5 0 0 1 15.5 2v5.725A5.5 5.5 0 0 0 6.09 12.5H2A1.5 1.5 0 0 1 .5 11V2A1.5 1.5 0 0 1 2 .5Z"/>
  <path fill="#555" d="M14 1H2a1 1 0 0 0-1 1v9a1 1 0 0 0 1 1h4.022a5.5 5.5 0 0 0 .185 1H6v2h1.257c.314.38.677.716 1.08 1H3.5a.5.5 0 0 1 0-1H5v-2H2a2 2 0 0 1-2-2V2a2 2 0 0 1 2-2h12a2 2 0 0 1 2 2v6.337a5.533 5.533 0 0 0-1-1.08V2a1 1 0 0 0-1-1Z"/>
  <path fill="#0078D4" d="m10.07 15.137-.35.358a4.535 4.535 0 0 1-.874-.482l.119-.396a2 2 0 0 0-1.454-2.52l-.484-.115a4.249 4.249 0 0 1 0-.964l.484-.115a2 2 0 0 0 1.454-2.52l-.119-.396c.27-.19.563-.353.874-.482l.35.357a2 2 0 0 0 2.86 0l.35-.357c.311.13.604.292.874.482l-.119.396a2 2 0 0 0 1.454 2.52l.484.115a4.256 4.256 0 0 1 0 .963l-.484.116a2 2 0 0 0-1.454 2.52l.119.395a4.5 4.5 0 0 1-.874.483l-.35-.357a2 2 0 0 0-2.86 0ZM11.5 10.5a1 1 0 1 0 0 2 1 1 0 0 0 0-2Z"/>
</svg>
