<svg xmlns="http://www.w3.org/2000/svg" fill="none" viewBox="0 0 16 16">
  <path fill="#FAFAFA" d="M9.849 10.213A5.502 5.502 0 0 0 1.514 6.88a5 5 0 1 1 8.334 3.333Z"/>
  <path fill="#555" d="M6.5 2a4.5 4.5 0 0 1 3.19 7.674c.124.354.213.724.263 1.107l.067-.054 4.126 4.127a.5.5 0 0 0 .708-.708l-4.127-4.127a5.5 5.5 0 1 0-9.68-2.8c.294-.238.614-.446.954-.62L2 6.5A4.5 4.5 0 0 1 6.5 2Z"/>
  <path fill="#0078D4" d="m3.07 15.137-.35.358a4.535 4.535 0 0 1-.874-.482l.119-.396a2 2 0 0 0-1.454-2.52l-.484-.115a4.25 4.25 0 0 1 0-.964l.484-.115a2 2 0 0 0 1.454-2.52l-.119-.396c.27-.19.563-.353.874-.482l.35.357a2 2 0 0 0 2.86 0l.35-.357c.311.13.604.292.874.482l-.119.396a2 2 0 0 0 1.454 2.52l.484.115a4.25 4.25 0 0 1 0 .963l-.484.116a2 2 0 0 0-1.454 2.52l.119.395a4.5 4.5 0 0 1-.874.483l-.35-.357a2 2 0 0 0-2.86 0ZM4.5 10.5a1 1 0 1 0 0 2 1 1 0 0 0 0-2Z"/>
</svg>
