<svg xmlns="http://www.w3.org/2000/svg" fill="none" viewBox="0 0 16 16">
  <path fill="#FAFAFA" d="M1.5 3A1.5 1.5 0 0 1 3 1.5h2A1.5 1.5 0 0 1 6.5 3v2A1.5 1.5 0 0 1 5 6.5H3A1.5 1.5 0 0 1 1.5 5V3Z"/>
  <path fill="#555" d="M1 3a2 2 0 0 1 2-2h2a2 2 0 0 1 2 2v2a2 2 0 0 1-2 2H3a2 2 0 0 1-2-2V3Zm2-1a1 1 0 0 0-1 1v2a1 1 0 0 0 1 1h2a1 1 0 0 0 1-1V3a1 1 0 0 0-1-1H3Z"/>
  <path fill="#FAFAFA" d="M9.5 3A1.5 1.5 0 0 1 11 1.5h2A1.5 1.5 0 0 1 14.5 3v2A1.5 1.5 0 0 1 13 6.5h-2A1.5 1.5 0 0 1 9.5 5V3Z"/>
  <path fill="#555" d="M9 3a2 2 0 0 1 2-2h2a2 2 0 0 1 2 2v2a2 2 0 0 1-2 2h-2a2 2 0 0 1-2-2V3Zm2-1a1 1 0 0 0-1 1v2a1 1 0 0 0 1 1h2a1 1 0 0 0 1-1V3a1 1 0 0 0-1-1h-2Z"/>
  <path fill="#FAFAFA" d="M1.5 11A1.5 1.5 0 0 1 3 9.5h2A1.5 1.5 0 0 1 6.5 11v2A1.5 1.5 0 0 1 5 14.5H3A1.5 1.5 0 0 1 1.5 13v-2Z"/>
  <path fill="#555" d="M1 11a2 2 0 0 1 2-2h2a2 2 0 0 1 2 2v2a2 2 0 0 1-2 2H3a2 2 0 0 1-2-2v-2Zm2-1a1 1 0 0 0-1 1v2a1 1 0 0 0 1 1h2a1 1 0 0 0 1-1v-2a1 1 0 0 0-1-1H3Z"/>
  <path fill="#FAFAFA" d="M9.5 11A1.5 1.5 0 0 1 11 9.5h2a1.5 1.5 0 0 1 1.5 1.5v2a1.5 1.5 0 0 1-1.5 1.5h-2A1.5 1.5 0 0 1 9.5 13v-2Z"/>
  <path fill="#555" d="M9 11a2 2 0 0 1 2-2h2a2 2 0 0 1 2 2v2a2 2 0 0 1-2 2h-2a2 2 0 0 1-2-2v-2Zm2-1a1 1 0 0 0-1 1v2a1 1 0 0 0 1 1h2a1 1 0 0 0 1-1v-2a1 1 0 0 0-1-1h-2Z"/>
</svg>
