<svg xmlns="http://www.w3.org/2000/svg" fill="none" viewBox="0 0 16 16">
  <path fill="#FAFAFA" d="M14.876 10.11 13.683 9.1a1.441 1.441 0 0 1 0-2.198l1.183-.983a.505.505 0 0 0 .155-.561 7.701 7.701 0 0 0-1.196-2.103.504.504 0 0 0-.562-.153l-1.47.526A1.441 1.441 0 0 1 9.89 2.529L9.627 1.01A.5.5 0 0 0 9.222.6 7.56 7.56 0 0 0 8 .5c-.4.001-.798.03-1.194.086a.498.498 0 0 0-.416.408l-.28 1.535a1.441 1.441 0 0 1-1.903 1.098l-1.442-.531a.506.506 0 0 0-.563.145A7.734 7.734 0 0 0 .976 5.325a.504.504 0 0 0 .148.564l1.193 1.012a1.442 1.442 0 0 1 0 2.198l-1.183.983a.506.506 0 0 0-.155.561c.285.76.688 1.469 1.195 2.102a.504.504 0 0 0 .562.154l1.47-.526a1.442 1.442 0 0 1 1.904 1.098l.262 1.518a.5.5 0 0 0 .405.411c.404.066.813.1 1.223.1.4-.001.8-.03 1.195-.086a.5.5 0 0 0 .416-.409c.246-1.346.284-1.604.34-1.76a1.445 1.445 0 0 1 1.357-.957c.4 0 .528.116 1.925.62a.511.511 0 0 0 .562-.147 7.73 7.73 0 0 0 1.23-2.086.503.503 0 0 0-.15-.565ZM8 10.5a2.5 2.5 0 1 1 0-5 2.5 2.5 0 0 1 0 5Z"/>
  <path fill="#555" d="M8.003 16c-.436 0-.87-.036-1.3-.107a1 1 0 0 1-.818-.824l-.266-1.513a.932.932 0 0 0-.453-.639.943.943 0 0 0-.387-.125.902.902 0 0 0-.4.051l-1.472.527a1 1 0 0 1-1.114-.308 8.214 8.214 0 0 1-1.28-2.243 1.006 1.006 0 0 1 .3-1.121l1.184-.984a.941.941 0 0 0 0-1.431L.803 6.271a1 1 0 0 1-.294-1.125 8.21 8.21 0 0 1 1.309-2.222 1.008 1.008 0 0 1 1.123-.3l1.44.531a.91.91 0 0 0 .4.05.966.966 0 0 0 .388-.123.933.933 0 0 0 .455-.646L5.897.905A1 1 0 0 1 6.73.092c.42-.06.843-.09 1.267-.092.435-.001.87.032 1.3.1.207.037.397.136.545.286a.978.978 0 0 1 .273.539l.269 1.521a.95.95 0 0 0 .843.764.959.959 0 0 0 .4-.051l1.47-.528a1 1 0 0 1 1.116.306 8.185 8.185 0 0 1 1.278 2.244 1.007 1.007 0 0 1-.307 1.124l-1.178.981a.932.932 0 0 0-.33.719.935.935 0 0 0 .332.722l1.189 1a1 1 0 0 1 .295 1.126 8.177 8.177 0 0 1-1.31 2.227 1.01 1.01 0 0 1-1.117.3 52.11 52.11 0 0 1-.975-.363 2.01 2.01 0 0 0-.782-.226.94.94 0 0 0-.886.626c-.028.079-.068.3-.175.89l-.143.79a1 1 0 0 1-.83.814 9.221 9.221 0 0 1-1.27.089Zm-3.306-4.211a1.983 1.983 0 0 1 .972.259 1.943 1.943 0 0 1 .94 1.333l.263 1.523c.748.124 1.51.129 2.26.015l.137-.792c.048-.354.12-.705.218-1.049a1.94 1.94 0 0 1 1.827-1.289 2.86 2.86 0 0 1 1.139.293c.23.087.536.2.957.355.49-.58.88-1.237 1.155-1.944h-.006L13.36 9.48a1.946 1.946 0 0 1-.505-2.293 1.9 1.9 0 0 1 .508-.667l1.183-.986a6.989 6.989 0 0 0-1.11-1.967l-1.474.531A1.943 1.943 0 0 1 9.4 2.62l-.264-1.525A6.675 6.675 0 0 0 8.002 1a8.138 8.138 0 0 0-1.124.082l-.274 1.537A1.942 1.942 0 0 1 4.04 4.098l-1.443-.533a7.013 7.013 0 0 0-1.154 1.944l1.2 1.012a1.94 1.94 0 0 1 .506 2.295 1.934 1.934 0 0 1-.5.664l-1.187.987a7.024 7.024 0 0 0 1.11 1.967l1.474-.531a1.95 1.95 0 0 1 .65-.114Z"/>
  <path stroke="#0078D4" stroke-linejoin="round" d="M8 10.5a2.5 2.5 0 1 1 0-5 2.5 2.5 0 0 1 0 5Z"/>
</svg>
