<svg xmlns="http://www.w3.org/2000/svg" fill="none" viewBox="0 0 16 16">
  <path fill="#FAFAFA" d="M4 1.5c0 .175-.03.344-.085.5H5a5 5 0 1 1-2.5 9.33V12A1.5 1.5 0 0 0 4 13.5h6a1.5 1.5 0 0 0 1.5-1.5V2A1.5 1.5 0 0 0 10 .5H4c-.12 0-.235.014-.347.04C3.87.8 4 1.135 4 1.5Z"/>
  <path fill="#555" d="M3 11.584A4.999 4.999 0 0 1 2 11v1a2 2 0 0 0 2 2h6a2 2 0 0 0 2-2V2a2 2 0 0 0-2-2H4c-.287 0-.56.06-.807.17.336.174.597.472.723.833L4 1h6a1 1 0 0 1 1 1v10a1 1 0 0 1-1 1H4a1 1 0 0 1-1-1v-.416Z"/>
  <path fill="#555" d="M6 16a2 2 0 0 1-1.732-1H11a2 2 0 0 0 2-2V2.268A2 2 0 0 1 14 4v9a3 3 0 0 1-3 3H6Z"/>
  <path fill="#0078D4" d="M2.854 1.146a.5.5 0 0 1 0 .708L1.707 3H5a4 4 0 1 1-4 4 .5.5 0 0 1 1 0 3 3 0 1 0 3-3H1.707l1.147 1.146a.5.5 0 1 1-.708.708l-2-2a.5.5 0 0 1 0-.708l2-2a.5.5 0 0 1 .708 0Z"/>
</svg>
