<svg xmlns="http://www.w3.org/2000/svg" fill="none" viewBox="0 0 16 16">
  <path fill="#555" d="M1 4.5A2.5 2.5 0 0 1 3.5 2h3a.5.5 0 0 1 0 1h-3A1.5 1.5 0 0 0 2 4.5v8A1.5 1.5 0 0 0 3.5 14h8a1.5 1.5 0 0 0 1.5-1.5v-1a.5.5 0 0 1 1 0v1a2.5 2.5 0 0 1-2.5 2.5h-8A2.5 2.5 0 0 1 1 12.5v-8Z"/>
  <path fill="#FAFAFA" d="M15.11 6 10.5 1.5v2.672c-5.104 0-6.35 4.328-6.35 6.328 2.539-2.234 4.5-2.538 6.384-2.728L10.5 10.5 15.11 6Z"/>
  <path fill="#0078D4" d="m10.952 10.838 4.497-4.423.058-.065a.587.587 0 0 0-.058-.767l-4.497-4.421-.062-.053a.562.562 0 0 0-.89.469v2.13l-.224.015c-3.561.283-5.648 2.535-6.148 6.622a.574.574 0 0 0 .957.486A9.617 9.617 0 0 1 9 8.466a7.67 7.67 0 0 1 .742-.117L10 8.326v2.095l.005.083a.56.56 0 0 0 .947.334ZM9.85 4.72 11 4.643V2.61l3.446 3.388L11 9.39V7.231l-1.356.122h-.008a9.722 9.722 0 0 0-4.827 2.002 6.487 6.487 0 0 1 1.477-3.068A5.2 5.2 0 0 1 9.849 4.72Z"/>
</svg>
