<svg xmlns="http://www.w3.org/2000/svg" fill="none" viewBox="0 0 16 16">
  <path fill="#FAFAFA" d="M8.142 9.496h5.842c.826 0 1.496-.67 1.496-1.496V6.005c0-.826-.67-1.496-1.496-1.496H2.016A1.498 1.498 0 0 0 .52 6.005v.813a4.74 4.74 0 0 1 7.622 2.678Z"/>
  <path fill="#555" d="M.021 6.005c0-1.101.893-1.994 1.995-1.994h11.968c1.102 0 1.995.893 1.995 1.994V8a1.995 1.995 0 0 1-1.995 1.995H8.221a4.712 4.712 0 0 0-.215-.998h5.978c.55 0 .998-.446.998-.997V6.005a.997.997 0 0 0-.998-.997H2.016a.997.997 0 0 0-.997.997v.458a4.76 4.76 0 0 0-.998.825V6.005Z"/>
  <path fill="#555" d="M12.239 7.501a.748.748 0 1 0 0-1.496.748.748 0 0 0 0 1.496Z"/>
  <path fill="#0078D4" d="M5.6 13.29a3.49 3.49 0 1 1 .705-.705l2.544 2.543a.499.499 0 1 1-.705.705L5.6 13.289Zm.403-2.797a2.493 2.493 0 1 0-4.987 0 2.493 2.493 0 0 0 4.987 0Z"/>
</svg>
