<svg xmlns="http://www.w3.org/2000/svg" fill="none" viewBox="0 0 16 16">
  <path fill="#FAFAFA" d="M2.5 2.5H2A1.5 1.5 0 0 0 .5 4v2A1.5 1.5 0 0 0 2 7.5h5.5l-5-5Zm7.121 5H13A1.5 1.5 0 0 0 14.5 6V4A1.5 1.5 0 0 0 13 2.5H4.621l5 5ZM4.5 12a.5.5 0 0 1 .5-.5h1.5V11a.5.5 0 0 1 .5-.5h1a.5.5 0 0 1 .5.5v.5H10a.5.5 0 0 1 .5.5v1a.5.5 0 0 1-.5.5H5a.5.5 0 0 1-.5-.5v-1Z"/>
  <path fill="#555" d="M0 4a2 2 0 0 1 2-2l1 1H2a1 1 0 0 0-1 1v2a1 1 0 0 0 1 1h5l1 1v2a1 1 0 0 1 1 1h1a1 1 0 0 1 1 1h1l1 1h-2a1 1 0 0 1-1 1H5a1 1 0 0 1-1-1H.5a.5.5 0 0 1 0-1H4a1 1 0 0 1 1-1h1a1 1 0 0 1 1-1V8H2a2 2 0 0 1-2-2V4Zm5 9h5v-1H8.5a.5.5 0 0 1-.5-.5V11H7v.5a.5.5 0 0 1-.5.5H5v1Zm8-6H9.121l1 1H13a2 2 0 0 0 2-2V4a2 2 0 0 0-2-2H4.121l1 1H13a1 1 0 0 1 1 1v2a1 1 0 0 1-1 1Z"/>
  <path fill="#555" d="M11.25 5.5a.75.75 0 1 0 0-1.5.75.75 0 0 0 0 1.5Z"/>
  <path fill="#0078D4" d="M.146.146a.5.5 0 0 1 .708 0l15 15a.5.5 0 0 1-.708.707l-15-15a.5.5 0 0 1 0-.707Z"/>
</svg>
