<svg xmlns="http://www.w3.org/2000/svg" fill="none" viewBox="0 0 16 16">
  <path fill="#FAFAFA" d="M.5 9h5.498a1 1 0 0 0 1-1V5.5H14A1.5 1.5 0 0 1 15.5 7v2a1.5 1.5 0 0 1-1.5 1.5H2A1.5 1.5 0 0 1 .5 9Z"/>
  <path fill="#555" d="M.01 8.999c0 1.103.894 1.997 1.998 1.997h11.985A1.997 1.997 0 0 0 15.99 9V7a1.997 1.997 0 0 0-1.998-1.997H7v.998h6.994a1 1 0 0 1 .998 1v1.997a.999.999 0 0 1-.998.998H2.008a.999.999 0 0 1-1-.998H.01Z"/>
  <path fill="#555" d="M13 7.75a.75.75 0 1 1-1.5 0 .75.75 0 0 1 1.5 0Z"/>
  <path fill="#0078D4" fill-rule="evenodd" d="M2.637 1.076A1 1 0 0 1 4.02 2v1h-2V2a1 1 0 0 1 .617-.924ZM1.02 3V2a2 2 0 1 1 4 0v1h.5a.498.498 0 0 1 .5.5v4a.498.498 0 0 1-.5.5h-5a.498.498 0 0 1-.5-.5v-4a.498.498 0 0 1 .5-.5h.5Zm2 1.5a1 1 0 1 1 0 2 1 1 0 0 1 0-2Z"/>
</svg>
