<svg xmlns="http://www.w3.org/2000/svg" fill="none" viewBox="0 0 16 16">
  <path fill="#FAFAFA" d="M12 1.5H4A2.5 2.5 0 0 0 1.5 4v8A2.5 2.5 0 0 0 4 14.5h3.464a2.5 2.5 0 0 0 1.768-.732l4.536-4.536a2.5 2.5 0 0 0 .732-1.768V4A2.5 2.5 0 0 0 12 1.5Z"/>
  <path fill="#0078D4" d="M6.5 5.5a1 1 0 1 1-2 0 1 1 0 0 1 2 0ZM4.396 9.396a.5.5 0 0 1 .708 0c.301.302 1.346 1.229 2.896 1.229a.5.5 0 0 1 0 1c-1.95 0-3.239-1.156-3.604-1.521a.5.5 0 0 1 0-.708ZM10.5 6.5a1 1 0 1 0 0-2 1 1 0 0 0 0 2Z"/>
  <path fill="#555" d="M4 1a3 3 0 0 0-3 3v8a3 3 0 0 0 3 3h3.464a3 3 0 0 0 2.122-.879l4.535-4.535A3 3 0 0 0 15 7.464V4a3 3 0 0 0-3-3H4ZM2 4a2 2 0 0 1 2-2h8a2 2 0 0 1 2 2v3.464c0 .183-.025.363-.073.536H11a3 3 0 0 0-3 3v2.927a2.002 2.002 0 0 1-.536.073H4a2 2 0 0 1-2-2V4Zm7 9.293V11a2 2 0 0 1 2-2h2.293L9 13.293Z"/>
</svg>
