<svg xmlns="http://www.w3.org/2000/svg" fill="none" viewBox="0 0 16 16">
  <path fill="#FAFAFA" d="M3.55 5.75a4.76 4.76 0 0 0-.998.105V2a1.5 1.5 0 0 1 1.5-1.5h3.88a1.5 1.5 0 0 1 1.06.44l4.121 4.12a1.5 1.5 0 0 1 .44 1.061V14a1.5 1.5 0 0 1-1.5 1.5H10.3c0-.448-.17-.896-.513-1.237l-1.876-1.877A4.75 4.75 0 0 0 3.55 5.75Z"/>
  <path fill="#555" d="M3.052 2a1 1 0 0 1 1-1h3.88c.04 0 .08.002.12.007V4a2 2 0 0 0 2 2h2.993a.97.97 0 0 1 .008.121V14a1 1 0 0 1-1 1h-1.826a1.76 1.76 0 0 1 0 1h1.825a2 2 0 0 0 2-2V6.121a2 2 0 0 0-.585-1.414L9.345.586A2 2 0 0 0 7.931 0H4.052a2 2 0 0 0-2 2v3.99c.32-.105.655-.178 1-.214V2Zm9.293 3h-2.293a1 1 0 0 1-1-1V1.707L12.345 5Z"/>
  <path fill="#0078D4" d="M5.646 13.303a3.5 3.5 0 1 1 .707-.707l2.55 2.55a.5.5 0 0 1-.707.708l-2.55-2.55ZM6.05 10.5a2.5 2.5 0 1 0-5 0 2.5 2.5 0 0 0 5 0Z"/>
</svg>
