<svg xmlns="http://www.w3.org/2000/svg" fill="none" viewBox="0 0 16 16">
  <path fill="#FAFAFA" d="M5 4.5H3.5a2 2 0 0 0-2 2v6a2 2 0 0 0 2 2h4A2 2 0 0 0 9.437 13H8a3 3 0 0 1-3-3V4.5Z"/>
  <path fill="#555" d="M5 4H3.5A2.5 2.5 0 0 0 1 6.5v6A2.5 2.5 0 0 0 3.5 15h4a2.5 2.5 0 0 0 2.45-2H8.915A1.5 1.5 0 0 1 7.5 14h-4A1.5 1.5 0 0 1 2 12.5v-6A1.5 1.5 0 0 1 3.5 5H5V4Z"/>
  <path fill="#FAFAFA" d="M6.5 9.5v-6a2 2 0 0 1 2-2h4a2 2 0 0 1 2 2v6a2 2 0 0 1-2 2h-4a2 2 0 0 1-2-2Z"/>
  <path fill="#0078D4" d="M8.5 2A1.5 1.5 0 0 0 7 3.5v6A1.5 1.5 0 0 0 8.5 11h4A1.5 1.5 0 0 0 14 9.5v-6A1.5 1.5 0 0 0 12.5 2h-4ZM6 3.5A2.5 2.5 0 0 1 8.5 1h4A2.5 2.5 0 0 1 15 3.5v6a2.5 2.5 0 0 1-2.5 2.5h-4A2.5 2.5 0 0 1 6 9.5v-6Z"/>
</svg>
