<svg xmlns="http://www.w3.org/2000/svg" fill="none" viewBox="0 0 16 16">
  <path fill="#FAFAFA" d="M1.5 2.5a1 1 0 0 1 1-1h2a1 1 0 0 1 1 1v1a1 1 0 0 1-1 1h-2a1 1 0 0 1-1-1v-1Z"/>
  <path fill="#555" d="M1 2.5A1.5 1.5 0 0 1 2.5 1h2A1.5 1.5 0 0 1 6 2.5v1A1.5 1.5 0 0 1 4.5 5h-2A1.5 1.5 0 0 1 1 3.5v-1ZM2.5 2a.5.5 0 0 0-.5.5v1a.5.5 0 0 0 .5.5h2a.5.5 0 0 0 .5-.5v-1a.5.5 0 0 0-.5-.5h-2Z"/>
  <path fill="#FAFAFA" d="M1.5 7.5a1 1 0 0 1 1-1h2a1 1 0 0 1 1 1v1a1 1 0 0 1-1 1h-2a1 1 0 0 1-1-1v-1Z"/>
  <path fill="#555" d="M1 7.5A1.5 1.5 0 0 1 2.5 6h2A1.5 1.5 0 0 1 6 7.5v1A1.5 1.5 0 0 1 4.5 10h-2A1.5 1.5 0 0 1 1 8.5v-1ZM2.5 7a.5.5 0 0 0-.5.5v1a.5.5 0 0 0 .5.5h2a.5.5 0 0 0 .5-.5v-1a.5.5 0 0 0-.5-.5h-2Z"/>
  <path fill="#FAFAFA" d="M1.5 12.5a1 1 0 0 1 1-1h2a1 1 0 0 1 1 1v1a1 1 0 0 1-1 1h-2a1 1 0 0 1-1-1v-1Z"/>
  <path fill="#555" d="M1 12.5A1.5 1.5 0 0 1 2.5 11h2A1.5 1.5 0 0 1 6 12.5v1A1.5 1.5 0 0 1 4.5 15h-2A1.5 1.5 0 0 1 1 13.5v-1Zm1.5-.5a.5.5 0 0 0-.5.5v1a.5.5 0 0 0 .5.5h2a.5.5 0 0 0 .5-.5v-1a.5.5 0 0 0-.5-.5h-2Zm5.5.5a.5.5 0 0 1 .5-.5h6a.5.5 0 0 1 0 1h-6a.5.5 0 0 1-.5-.5Zm0-5a.5.5 0 0 1 .5-.5h6a.5.5 0 0 1 0 1h-6a.5.5 0 0 1-.5-.5Zm0-5a.5.5 0 0 1 .5-.5h6a.5.5 0 0 1 0 1h-6a.5.5 0 0 1-.5-.5Z"/>
</svg>
