<svg xmlns="http://www.w3.org/2000/svg" fill="none" viewBox="0 0 16 16">
  <path fill="#FAFAFA" d="M7.374.826 1.766 9.337a.75.75 0 0 0 .626 1.163h11.216a.75.75 0 0 0 .626-1.163L8.626.826a.75.75 0 0 0-1.252 0Z"/>
  <path fill="#0078D4" fill-rule="evenodd" d="M7.791 1.112a.25.25 0 0 1 .418 0l5.607 8.504a.25.25 0 0 1-.208.387H2.392a.25.25 0 0 1-.209-.387l5.608-8.504Zm1.253-.55a1.25 1.25 0 0 0-2.088 0L1.348 9.066a1.249 1.249 0 0 0 1.044 1.936h11.216a1.249 1.249 0 0 0 1.043-1.936L9.044.562ZM1.5 13a.5.5 0 0 0 0 1h13a.5.5 0 0 0 0-1h-13Z"/>
</svg>
