<svg xmlns="http://www.w3.org/2000/svg" fill="none" viewBox="0 0 16 16">
  <path fill="#FAFAFA" d="M1.49 11.99v-8a2.5 2.5 0 0 1 2.5-2.5h8a2.5 2.5 0 0 1 2.5 2.5v1.763a3.07 3.07 0 0 0-2.457.886l-1.14 1.136.001.002a128.07 128.07 0 0 1-2.957 2.958c-1.096 1.065-1.297 1.26-1.44 1.83l-.48 1.925H3.99a2.5 2.5 0 0 1-2.5-2.5Z"/>
  <path fill="#555" d="M3.99.99a3 3 0 0 0-3 3v8a3 3 0 0 0 3 3h1.901l.25-1H3.99a2 2 0 0 1-2-2v-7h12v.757a3.07 3.07 0 0 1 1 .095V3.99a3 3 0 0 0-3-3h-8Zm-2 3a2 2 0 0 1 2-2h8a2 2 0 0 1 2 2h-12Z"/>
  <path fill="#555" d="M11.525 7.145a1 1 0 0 0-1.372 1.391c.231-.235.478-.488.741-.76l-.002-.001.633-.63Zm-2.99 3.007a1 1 0 0 0-1.393 1.369c.194-.202.45-.451.795-.787.176-.17.374-.362.598-.582ZM4.99 8.99a1 1 0 1 0 0-2 1 1 0 0 0 0 2Zm1 2a1 1 0 1 1-2 0 1 1 0 0 1 2 0Zm2.556-2.169a1 1 0 1 1-1.112-1.663 1 1 0 0 1 1.112 1.663Z"/>
  <path fill="#0078D4" d="m15.415 10.18-.175.175-2.579-2.579.253-.252a1.823 1.823 0 0 1 2.544-.033 1.763 1.763 0 0 1 .531 1.354 1.996 1.996 0 0 1-.574 1.334Zm-7.522 2.365 3.883-3.884 2.579 2.579-3.884 3.884a.68.68 0 0 1-.323.183l-2.69.672a.348.348 0 0 1-.421-.422l.673-2.689a.697.697 0 0 1 .183-.323Z"/>
</svg>
