<svg xmlns="http://www.w3.org/2000/svg" fill="none" viewBox="0 0 16 16">
  <path fill="#FAFAFA" d="M2.5 14V2A1.5 1.5 0 0 1 4 .5h3.879a1.5 1.5 0 0 1 1.06.44l4.122 4.12a1.5 1.5 0 0 1 .439 1.061V14a1.5 1.5 0 0 1-1.5 1.5H4A1.5 1.5 0 0 1 2.5 14Z"/>
  <path fill="#555" d="M4 0a2 2 0 0 0-2 2v12a2 2 0 0 0 2 2h8a2 2 0 0 0 2-2V6.121a2 2 0 0 0-.586-1.414L9.293.586A2 2 0 0 0 7.879 0H4ZM3 2a1 1 0 0 1 1-1h3.879c.04 0 .081.002.121.007V4a2 2 0 0 0 2 2h2.993a.97.97 0 0 1 .007.121V14a1 1 0 0 1-1 1H4a1 1 0 0 1-1-1V2Zm9.293 3H10a1 1 0 0 1-1-1V1.707L12.293 5Z"/>
  <path fill="#0078D4" d="m8.88 7.852.551-.547a3.5 3.5 0 0 1 .768.472l-.17.547a1.25 1.25 0 0 0 .914 1.589l.526.12a3.538 3.538 0 0 1 0 .934l-.526.12a1.25 1.25 0 0 0-.914 1.589l.17.547c-.233.189-.49.348-.768.472l-.552-.547a1.25 1.25 0 0 0-1.758 0l-.552.547a3.504 3.504 0 0 1-.768-.472l.17-.547a1.25 1.25 0 0 0-.914-1.589l-.526-.12a3.533 3.533 0 0 1 0-.934l.526-.12a1.25 1.25 0 0 0 .914-1.589l-.17-.547a3.5 3.5 0 0 1 .768-.472l.552.547a1.25 1.25 0 0 0 1.758 0ZM8 11.25a.75.75 0 1 0 0-1.5.75.75 0 0 0 0 1.5Z"/>
</svg>
