<svg xmlns="http://www.w3.org/2000/svg" fill="none" viewBox="0 0 16 16">
  <path fill="#555" d="M5.274 11.433.707 16l-.002-.002H.002v-.703L0 15.293l4.567-4.567.707.707Z"/>
  <path fill="#FAFAFA" d="m8.403 1.314-1.737 3.82a1 1 0 0 1-.539.515L1.5 7.5l7 7 1.364-4.546a1 1 0 0 1 .573-.636l4.185-1.744a1 1 0 0 0 .322-1.63L10.02 1.02a1 1 0 0 0-1.617.294Z"/>
  <path fill="#0078D4" d="M9.045.252a1.5 1.5 0 0 1 1.328.414l4.925 4.925a1.501 1.501 0 0 1-.484 2.445l-4.185 1.743a.5.5 0 0 0-.286.318l-1.364 4.547a.5.5 0 0 1-.833.21l-7-7a.5.5 0 0 1 .168-.818l4.627-1.851a.5.5 0 0 0 .27-.257m0 0 1.737-3.821A1.5 1.5 0 0 1 9.045.252m.417.998a.5.5 0 0 0-.604.27L7.121 5.342a1.5 1.5 0 0 1-.808.772L2.39 7.683l5.872 5.872L9.385 9.81a1.5 1.5 0 0 1 .86-.954l4.184-1.743a.5.5 0 0 0 .162-.815L9.666 1.374"/>
</svg>
