<svg xmlns="http://www.w3.org/2000/svg" fill="none" viewBox="0 0 16 16">
  <path fill="#0078D4" d="M2.5 0a.5.5 0 0 1 .5.5V2h12.5a.5.5 0 0 1 0 1H3v12.5a.5.5 0 0 1-1 0V3H.5a.5.5 0 0 1 0-1H2V.5a.5.5 0 0 1 .5-.5Z"/>
  <path fill="#FAFAFA" d="M4.5 12.5v-7a1 1 0 0 1 1-1h7a1 1 0 0 1 1 1v7a1 1 0 0 1-1 1h-7a1 1 0 0 1-1-1Z"/>
  <path fill="#555" d="M5.5 5a.5.5 0 0 0-.5.5v7a.5.5 0 0 0 .5.5h7a.5.5 0 0 0 .5-.5v-7a.5.5 0 0 0-.5-.5h-7ZM4 5.5A1.5 1.5 0 0 1 5.5 4h7A1.5 1.5 0 0 1 14 5.5v7a1.5 1.5 0 0 1-1.5 1.5h-7A1.5 1.5 0 0 1 4 12.5v-7Z"/>
</svg>
