<svg xmlns="http://www.w3.org/2000/svg" fill="none" viewBox="0 0 16 16">
  <path fill="#FAFAFA" fill-rule="evenodd" d="M5 .5h6A1.5 1.5 0 0 1 12.5 2v3.837A5.75 5.75 0 0 0 7.37 15.5H5A1.5 1.5 0 0 1 3.5 14V2A1.5 1.5 0 0 1 5 .5Z"/>
  <path fill="#555" fill-rule="evenodd" d="M5 1a1 1 0 0 0-1 1v12a1 1 0 0 0 1 1h1.938c.285.372.615.708.982 1H5a2 2 0 0 1-2-2V2a2 2 0 0 1 2-2h6a2 2 0 0 1 2 2v3.948a5.733 5.733 0 0 0-1-.177V2a1 1 0 0 0-1-1H5Z"/>
  <path fill="#0078D4" d="M16 11.5a4.5 4.5 0 1 1-9 0 4.5 4.5 0 0 1 9 0Z"/>
  <path fill="#fff" d="M11.5 9a.5.5 0 0 1 .5.5V11h1.5a.5.5 0 0 1 0 1H12v1.5a.5.5 0 0 1-1 0V12H9.5a.5.5 0 0 1 0-1H11V9.5a.5.5 0 0 1 .5-.5Z"/>
  <path fill="#FAFAFA" d="M5 .5h6A1.5 1.5 0 0 1 12.5 2v3.837A5.75 5.75 0 0 0 7.37 15.5H5A1.5 1.5 0 0 1 3.5 14V2A1.5 1.5 0 0 1 5 .5Z"/>
  <path fill="#555" d="M5 1a1 1 0 0 0-1 1v12a1 1 0 0 0 1 1h1.938c.285.372.615.708.982 1H5a2 2 0 0 1-2-2V2a2 2 0 0 1 2-2h6a2 2 0 0 1 2 2v3.948a5.733 5.733 0 0 0-1-.177V2a1 1 0 0 0-1-1H5Z"/>
  <path fill="#0078D4" d="M16 11.5a4.5 4.5 0 1 1-9 0 4.5 4.5 0 0 1 9 0Z"/>
  <path fill="#fff" d="M11.5 9a.5.5 0 0 1 .5.5V11h1.5a.5.5 0 0 1 0 1H12v1.5a.5.5 0 0 1-1 0V12H9.5a.5.5 0 0 1 0-1H11V9.5a.5.5 0 0 1 .5-.5Z"/>
</svg>
