<svg xmlns="http://www.w3.org/2000/svg" fill="none" viewBox="0 0 16 16">
  <path fill="#FAFAFA" d="M8 15.5a7.5 7.5 0 1 0 0-15 7.5 7.5 0 0 0 0 15Zm0-6a1.5 1.5 0 1 1 0-3 1.5 1.5 0 0 1 0 3Z"/>
  <path fill="#555" d="M8 1a7 7 0 1 0 0 14A7 7 0 0 0 8 1ZM0 8a8 8 0 1 1 16 0A8 8 0 0 1 0 8Zm8-1a1 1 0 1 0 0 2 1 1 0 0 0 0-2ZM6 8a2 2 0 1 1 4 0 2 2 0 0 1-4 0Z"/>
  <path fill="#0078D4" d="M9.5 3.5a1.5 1.5 0 1 1-3 0 1.5 1.5 0 0 1 3 0Z"/>
  <path fill="#0078D4" d="M8 4a4 4 0 1 0 4 4 .5.5 0 0 1 1 0 5 5 0 1 1-5-5 .5.5 0 0 1 0 1Z"/>
</svg>
