<svg xmlns="http://www.w3.org/2000/svg" fill="none" viewBox="0 0 16 16">
  <path fill="#FAFAFA" d="M.5 9.371A3.484 3.484 0 0 0 2.502 10h4a3.5 3.5 0 0 0 3.5-3.5v-4H13A2.5 2.5 0 0 1 15.5 5v6a2.5 2.5 0 0 1-2.5 2.5H3A2.5 2.5 0 0 1 .5 11V9.371Z"/>
  <path fill="#555" d="M0 8.947V11a3 3 0 0 0 3 3h10a3 3 0 0 0 3-3V5a3 3 0 0 0-3-3H9.967c.023.163.035.33.035.5V3H13a2 2 0 0 1 2 2v5H1v-.338a3.51 3.51 0 0 1-1-.715ZM3 13a2 2 0 0 1-2-2h10.5a.5.5 0 1 0 0 1 .5.5 0 0 0 0-1h2a.5.5 0 1 0 0 1 .5.5 0 0 0 0-1H15a2 2 0 0 1-2 2H3Z"/>
  <path fill="#0078D4" d="M2.502 0a2.5 2.5 0 0 0-2.5 2.5v4c0 .51.153.983.415 1.379l3.025-3.025a1.5 1.5 0 0 1 2.121 0l3.025 3.025A2.49 2.49 0 0 0 9.002 6.5v-4a2.5 2.5 0 0 0-2.5-2.5h-4Zm3.75 3.5a.75.75 0 1 1 0-1.5.75.75 0 0 1 0 1.5Z"/>
  <path fill="#0078D4" d="M2.502 9c-.51 0-.983-.152-1.378-.414L4.149 5.56a.5.5 0 0 1 .707 0l3.025 3.025A2.478 2.478 0 0 1 6.502 9h-4Z"/>
</svg>
