<svg xmlns="http://www.w3.org/2000/svg" fill="none" viewBox="0 0 16 16">
  <path fill="#0078D4" d="M6.5 10H4.75a.5.5 0 0 1-.462-.692l2.084-5A.5.5 0 0 1 6.833 4h3.473a.5.5 0 0 1 .475.658L10 7h1.097a.75.75 0 0 1 .512 1.298l-4.873 4.548c-.364.34-.947-.004-.826-.487L6.5 10Z"/>
  <path fill="#555" d="M1.5 0a.5.5 0 0 1 .5.5V1h12V.5a.5.5 0 0 1 1 0V1h.5a.5.5 0 0 1 0 1H15v12h.5a.5.5 0 0 1 0 1H15v.5a.5.5 0 0 1-1 0V15H2v.5a.5.5 0 0 1-1 0V15H.5a.5.5 0 0 1 0-1H1V2H.5a.5.5 0 0 1 0-1H1V.5a.5.5 0 0 1 .5-.5ZM2 2v12h12V2H2Z"/>
</svg>
