<svg xmlns="http://www.w3.org/2000/svg" fill="none" viewBox="0 0 16 16">
  <path fill="#555" d="M15.854.146a.5.5 0 0 1 0 .708l-5.5 5.5a.5.5 0 0 1-.708-.708l5.5-5.5a.5.5 0 0 1 .708 0Z"/>
  <path fill="#FAFAFA" d="m9.063 12.063.026-.044A3.75 3.75 0 1 0 3.98 6.911l-.043.026 5.124 5.125Z"/>
  <path fill="#555" d="M3.604 6.565a4.25 4.25 0 1 1 5.831 5.831.5.5 0 0 1-.726.02L3.584 7.291a.5.5 0 0 1 .02-.726Zm.986.318 4.527 4.527A3.25 3.25 0 1 0 4.59 6.882Z"/>
  <path fill="#FAFAFA" d="M9.063 12.063 3.936 6.936.5 9 7 15.5l2.063-3.438Z"/>
  <path fill="#0078D4" d="M3.68 6.509a.5.5 0 0 1 .611.075l5.125 5.125a.5.5 0 0 1 .075.61L7.43 15.758a.5.5 0 0 1-.783.097l-6.5-6.5a.5.5 0 0 1 .097-.783L3.68 6.51Zm-2.374 2.59 5.595 5.595 1.532-2.554L3.86 7.567 1.306 9.1Z"/>
</svg>
