<svg xmlns="http://www.w3.org/2000/svg" fill="none" viewBox="0 0 16 16">
  <path fill="#FAFAFA" d="M5.5 1.5h-3a2 2 0 0 0-2 2v9a2 2 0 0 0 2 2h10.009a2 2 0 0 0 1.98-1.725l.873-6.285c.114-.814-.834-1.74-1.39-2.344A1.995 1.995 0 0 0 12.5 3.5H8.75a1.5 1.5 0 0 1-1.2-.6l-.45-.6a2 2 0 0 0-1.6-.8Z"/>
  <path fill="#555" d="M0 3.5A2.5 2.5 0 0 1 2.5 1h3a2.5 2.5 0 0 1 2 1l.75 1h4.25a2.5 2.5 0 0 1 2.499 2.416c.545.421.863 1.115.76 1.86l-.774 5.568A2.5 2.5 0 0 1 12.509 15H2.5A2.5 2.5 0 0 1 0 12.5v-9Zm13.916 1.505A1.5 1.5 0 0 0 12.5 4H7.75L6.7 2.6A1.5 1.5 0 0 0 5.5 2h-3A1.5 1.5 0 0 0 1 3.5v9c0 .062.004.122.01.182l1.254-6.085A2 2 0 0 1 4.223 5h9.554c.047 0 .093.002.14.005Zm-12.12 8.82c.21.112.45.175.704.175h10.009a1.5 1.5 0 0 0 1.485-1.294l.774-5.568A1 1 0 0 0 13.778 6H4.222a1 1 0 0 0-.98.798l-1.447 7.027Z"/>
</svg>
