<svg xmlns="http://www.w3.org/2000/svg" fill="none" viewBox="0 0 16 16">
  <path fill="#FAFAFA" d="M2 2a2 2 0 0 1 2-2h8a2 2 0 0 1 2 2v5a2 2 0 0 1-2 2H4a2 2 0 0 1-2-2V2Z"/>
  <path fill="#555" d="M12 1a1 1 0 0 1 1 1v5a1 1 0 0 1-1 1H4a1 1 0 0 1-1-1V2a1 1 0 0 1 1-1h8ZM4 0a2 2 0 0 0-2 2v5a2 2 0 0 0 2 2h8a2 2 0 0 0 2-2V2a2 2 0 0 0-2-2H4Z"/>
  <path fill="#555" d="M6.5 8a.5.5 0 0 1 .5.5V10h2V8.5a.5.5 0 0 1 1 0V10h1.5a.5.5 0 0 1 0 1h-7a.5.5 0 0 1 0-1H6V8.5a.5.5 0 0 1 .5-.5Z"/>
  <path fill="#FAFAFA" d="m2.5 15.5 1-3h9l1 3h-11Z"/>
  <path fill="#555" d="M3.026 12.342A.5.5 0 0 1 3.5 12h9a.5.5 0 0 1 .474.342l1 3A.5.5 0 0 1 13.5 16h-11a.5.5 0 0 1-.474-.658l1-3ZM3.86 13l-.666 2h9.612l-.666-2H3.86Z"/>
</svg>
