<svg xmlns="http://www.w3.org/2000/svg" fill="none" viewBox="0 0 16 16">
  <path fill="#FAFAFA" d="M9.893 6.5A5.752 5.752 0 0 1 .5 8.63V10A1.5 1.5 0 0 0 2 11.5h12a1.5 1.5 0 0 0 1.5-1.5V8A1.5 1.5 0 0 0 14 6.5H9.893Z"/>
  <path fill="#555" d="M9.68 7H14a1 1 0 0 1 1 1v2a1 1 0 0 1-1 1H2a1 1 0 0 1-1-1v-.938a5.784 5.784 0 0 1-1-.982V10a2 2 0 0 0 2 2h12a2 2 0 0 0 2-2V8a2 2 0 0 0-2-2h-3.948a5.656 5.656 0 0 1-.373 1Z"/>
  <path fill="#555" d="M13 8.75a.75.75 0 1 1-1.5 0 .75.75 0 0 1 1.5 0Z"/>
  <path fill="#0078D4" d="M0 4.5a4.5 4.5 0 1 1 9 0 4.5 4.5 0 0 1-9 0Z"/>
  <path fill="#fff" d="M6.898 4.898a.563.563 0 0 1-.796 0L4.5 3.295 2.898 4.898a.563.563 0 0 1-.796-.796l2-2c.22-.22.576-.22.796 0l2 2c.22.22.22.576 0 .796Z"/>
  <path fill="#fff" d="M4.5 7a.5.5 0 0 1-.5-.5v-4a.5.5 0 0 1 1 0v4a.5.5 0 0 1-.5.5Z"/>
</svg>
