<svg xmlns="http://www.w3.org/2000/svg" fill="none" viewBox="0 0 16 16">
  <path fill="#FAFAFA" d="M3.5 1.5h2a1 1 0 0 1 1-1h3a1 1 0 0 1 1 1h2a1 1 0 0 1 1 1V7H9a2 2 0 0 0-2 2v6.5H3.5a1 1 0 0 1-1-1v-12a1 1 0 0 1 1-1Z"/>
  <path fill="#555" d="M3.5 2a.5.5 0 0 0-.5.5v12a.5.5 0 0 0 .5.5h3a.5.5 0 0 1 0 1h-3A1.5 1.5 0 0 1 2 14.5v-12A1.5 1.5 0 0 1 3.5 1h2a.5.5 0 0 1 0 1h-2Zm6.5-.5a.5.5 0 0 1 .5-.5h2A1.5 1.5 0 0 1 14 2.5v4a.5.5 0 0 1-1 0v-4a.5.5 0 0 0-.5-.5h-2a.5.5 0 0 1-.5-.5Z"/>
  <path fill="#555" d="M5 1.5A1.5 1.5 0 0 1 6.5 0h3a1.5 1.5 0 0 1 0 3h-3A1.5 1.5 0 0 1 5 1.5ZM6.5 1a.5.5 0 0 0 0 1h3a.5.5 0 0 0 0-1h-3Z"/>
  <path fill="#0078D4" d="M8 9.5A1.5 1.5 0 0 1 9.5 8h5A1.5 1.5 0 0 1 16 9.5v5a1.5 1.5 0 0 1-1.5 1.5h-5A1.5 1.5 0 0 1 8 14.5v-5Z"/>
  <path fill="#fff" d="M10.5 10a.5.5 0 0 0 0 1h1.616l-2.058 2.058a.625.625 0 1 0 .884.884L13 11.884V13.5a.5.5 0 0 0 1 0v-3a.5.5 0 0 0-.5-.5h-3Z"/>
</svg>
