<svg xmlns="http://www.w3.org/2000/svg" fill="none" viewBox="0 0 16 16">
  <path fill="#555" d="M5.274 11.433.707 16l-.002-.002H.002v-.703L0 15.293l4.567-4.567.707.707Z"/>
  <path fill="#FAFAFA" d="M5.28 5.988 1.5 7.5l7 7 1.221-4.072-4.44-4.44Zm5.865 3.035 3.477-1.449a1 1 0 0 0 .322-1.63L10.02 1.02a1 1 0 0 0-1.617.294L6.85 4.729l4.295 4.294ZM5.786 5.786l4.1 4.1a1 1 0 0 1 .295-.412L6.28 5.572a1 1 0 0 1-.153.077l-.341.137Z"/>
  <path fill="#555" d="M4.896 5.603 1.314 7.036a.5.5 0 0 0-.168.817l7 7a.5.5 0 0 0 .833-.21l1.144-3.813-.803-.803-1.058 3.527L2.39 7.683l3.275-1.31-.77-.77Zm4.615 3.908.775.775.057-.189a.5.5 0 0 1 .194-.267l-.71-.711a1.5 1.5 0 0 0-.316.392ZM6.64 5.932a1.5 1.5 0 0 1-.327.181l-.143.057-.769-.769.505-.202.734.733Zm4.122 2.708 3.667-1.527a.5.5 0 0 0 .162-.815L9.666 1.374l-.205-.124a.5.5 0 0 0-.604.27l-1.63 3.587-.755-.756 1.475-3.244a1.5 1.5 0 0 1 2.425-.44l4.925 4.924a1.501 1.501 0 0 1-.484 2.445l-3.287 1.37-.765-.765Z"/>
  <path fill="#0078D4" d="M.146.146a.5.5 0 0 1 .708 0l15 15a.5.5 0 0 1-.708.708l-15-15a.5.5 0 0 1 0-.708Z"/>
</svg>
