<svg xmlns="http://www.w3.org/2000/svg" fill="none" viewBox="0 0 16 16">
  <path fill="#0078D4" d="M4.864 12.307c0-.433.023-.864.069-1.292.05-.433.132-.86.246-1.279l-.383.014H4.42a2.67 2.67 0 0 1-.93-.164 2.479 2.479 0 0 1-.772-.458 2.33 2.33 0 0 1-.527-.711A2.186 2.186 0 0 1 2 7.494c0-.146.014-.292.041-.437L2.588 4c.077-.433.223-.832.437-1.196a3.68 3.68 0 0 1 1.873-1.58 3.516 3.516 0 0 1 1.737-.19c.16.022.317.054.471.095l4.505 1.244a1.997 1.997 0 0 1 .937.581c.127.132.235.283.321.451.087.164.148.34.185.527l.287 1.435c.023.128.034.249.034.362 0 .242-.043.47-.13.684a2.29 2.29 0 0 1-.348.581 2.622 2.622 0 0 1-.506.472 3.15 3.15 0 0 1-.595.342c-.123.054-.24.111-.349.17a1.79 1.79 0 0 0-.321.226 8.51 8.51 0 0 0-1.58 1.825 12.37 12.37 0 0 0-.587 1.012c-.182.35-.37.72-.56 1.107-.16.329-.301.661-.424.999-.119.337-.244.676-.376 1.018a1.373 1.373 0 0 1-.445.602c-.2.154-.437.232-.71.232-.165 0-.31-.03-.438-.089a1.342 1.342 0 0 1-.362-.266 2.583 2.583 0 0 1-.404-.513c-.1-.182-.18-.372-.239-.567a3.333 3.333 0 0 1-.11-.609 7.5 7.5 0 0 1-.027-.65ZM12.5 5.73a.91.91 0 0 0-.02-.19l-.28-1.436a1.104 1.104 0 0 0-.288-.561 1.122 1.122 0 0 0-.533-.328L6.874 1.97a1.968 1.968 0 0 0-.362-.075 3.16 3.16 0 0 0-.363-.021c-.332 0-.649.06-.95.178a2.754 2.754 0 0 0-1.415 1.196 2.727 2.727 0 0 0-.335.91l-.547 3.055a1.413 1.413 0 0 0-.027.273A1.324 1.324 0 0 0 3.326 8.5a1.621 1.621 0 0 0 1.06.376c.132 0 .262-.002.39-.007.127-.004.257-.007.389-.007.123 0 .237.023.342.069.11.04.203.102.28.184a.824.824 0 0 1 .192.274.78.78 0 0 1 .075.341.377.377 0 0 1-.014.103.589.589 0 0 0-.007.096.363.363 0 0 0-.02.075.183.183 0 0 1-.014.068c-.082.37-.146.736-.191 1.1a8.974 8.974 0 0 0-.055 1.594c.009.16.032.314.068.464.041.146.096.29.164.431a1.536 1.536 0 0 0 .363.444.205.205 0 0 0 .095.021.283.283 0 0 0 .199-.075.586.586 0 0 0 .13-.171c.05-.105.09-.212.123-.321.031-.114.066-.224.102-.329.191-.55.417-1.089.677-1.613.26-.528.533-1.048.82-1.558a9.439 9.439 0 0 1 2.044-2.502c.146-.128.294-.233.444-.315a6.66 6.66 0 0 1 .493-.246c.127-.055.252-.123.376-.205a1.491 1.491 0 0 0 .56-.636 1.01 1.01 0 0 0 .089-.424Z"/>
  <path fill="#fff" d="M12.5 5.73a.91.91 0 0 0-.02-.19l-.28-1.436a1.104 1.104 0 0 0-.288-.561 1.122 1.122 0 0 0-.533-.328L6.874 1.97a1.968 1.968 0 0 0-.362-.075 3.16 3.16 0 0 0-.363-.021c-.332 0-.649.06-.95.178a2.754 2.754 0 0 0-1.415 1.196 2.727 2.727 0 0 0-.335.91l-.547 3.055a1.413 1.413 0 0 0-.027.273A1.324 1.324 0 0 0 3.326 8.5a1.621 1.621 0 0 0 1.06.376c.132 0 .262-.002.39-.007.127-.004.257-.007.389-.007.123 0 .237.023.342.069.11.04.203.102.28.184a.824.824 0 0 1 .192.274.78.78 0 0 1 .075.341.377.377 0 0 1-.014.103.589.589 0 0 0-.007.096.363.363 0 0 0-.02.075.183.183 0 0 1-.014.068c-.082.37-.146.736-.191 1.1a8.974 8.974 0 0 0-.055 1.594c.009.16.032.314.068.464.041.146.096.29.164.431a1.536 1.536 0 0 0 .363.444.205.205 0 0 0 .095.021.283.283 0 0 0 .199-.075.586.586 0 0 0 .13-.171c.05-.105.09-.212.123-.321.031-.114.066-.224.102-.329.191-.55.417-1.089.677-1.613.26-.528.533-1.048.82-1.558a9.439 9.439 0 0 1 2.044-2.502c.146-.128.294-.233.444-.315a6.66 6.66 0 0 1 .493-.246c.127-.055.252-.123.376-.205a1.491 1.491 0 0 0 .56-.636 1.01 1.01 0 0 0 .089-.424Z"/>
</svg>
