<svg xmlns="http://www.w3.org/2000/svg" fill="none" viewBox="0 0 16 16">
  <g clip-path="url(#a)">
    <path fill="#0078D4" d="M2.5 0a.5.5 0 0 1 .5.5V5h4.5a.5.5 0 0 1 0 1h-5a.5.5 0 0 1-.5-.5v-5a.5.5 0 0 1 .5-.5Z"/>
    <path fill="#0078D4" d="M8.515.226A5 5 0 0 1 13.2 8.843l-8.377 7.04a.5.5 0 1 1-.644-.766l8.38-7.041.001-.002a4 4 0 0 0-5.118-6.148L2.948 5.67a.5.5 0 0 1-.64-.768L6.8 1.157A5.001 5.001 0 0 1 8.515.226Z"/>
  </g>
  <defs>
    <clipPath id="a">
      <path fill="#fff" d="M0 0h16v16H0z"/>
    </clipPath>
  </defs>
</svg>
