<svg xmlns="http://www.w3.org/2000/svg" fill="none" viewBox="0 0 16 16">
  <path fill="#FAFAFA" d="M4.989 5.696.5 6.3 4.252 10l-.859 5.107L8 12.688l4.608 2.42-.363-2.156L4.99 5.696Zm6.947 4.119L15.501 6.3l-5.2-.7L8 .9 6.363 4.243l5.572 5.572ZM5.612 5.612l6.49 6.49-.143-.85-6.06-6.06L5.7 5.6l-.088.012Z"/>
  <path fill="#555" d="m4.524 5.23-4.081.594a.5.5 0 0 0-.277.852l3.554 3.465-.839 4.892a.503.503 0 0 0 .493.586c.081 0 .161-.02.233-.059L8 13.25l4.393 2.31a.495.495 0 0 0 .614-.12.502.502 0 0 0 .112-.407l-.25-1.457-1.225-1.225.318 1.853L8 12.12l-3.962 2.083.757-4.412-3.206-3.124 3.817-.555-.882-.882Zm6.973 6.267 1.226 1.225-.147-.853-1.225-1.225.146.853Zm-5.243-5.95-.234.473-.88-.88.215-.03.153-.31.746.747Zm5.31 3.895 2.846-2.774-4.43-.644L8 2.01 6.72 4.6l-.746-.746L7.552.659A.491.491 0 0 1 7.998.38a.496.496 0 0 1 .45.278l2.197 4.45 4.912.715a.5.5 0 0 1 .277.852L12.28 10.14l.003.02-.72-.719Z"/>
  <path fill="#0078D4" d="M.146.146a.5.5 0 0 1 .708 0l15 15a.5.5 0 0 1-.708.708l-15-15a.5.5 0 0 1 0-.708Z"/>
</svg>
