<svg xmlns="http://www.w3.org/2000/svg" fill="none" viewBox="0 0 16 16">
  <path fill="#000" d="M2 13.033V3.217c0-.15.03-.292.089-.424a1.063 1.063 0 0 1 .581-.581 1.072 1.072 0 0 1 1.025.096l7.445 4.901c.155.1.275.232.362.396a1.112 1.112 0 0 1 0 1.046 1.06 1.06 0 0 1-.362.39l-7.445 4.901a1.154 1.154 0 0 1-.608.185c-.15 0-.292-.03-.424-.089a1.26 1.26 0 0 1-.342-.232c-.1-.1-.18-.217-.239-.349A1.097 1.097 0 0 1 2 13.033Zm8.757-4.908c0-.036-.01-.07-.027-.103a.195.195 0 0 0-.069-.082L3.217 3.032a.16.16 0 0 0-.062-.02.168.168 0 0 0-.061-.014.216.216 0 0 0-.157.068.205.205 0 0 0-.062.15v9.817c0 .064.02.116.062.157.045.041.1.062.164.062a.205.205 0 0 0 .109-.034l7.451-4.908a.195.195 0 0 0 .069-.082.204.204 0 0 0 .027-.103Z"/>
  <path fill="#fff" d="M10.757 8.125c0-.036-.01-.07-.027-.103a.195.195 0 0 0-.069-.082L3.217 3.032a.16.16 0 0 0-.062-.02.168.168 0 0 0-.061-.014.216.216 0 0 0-.157.068.205.205 0 0 0-.062.15v9.817c0 .064.02.116.062.157.045.041.1.062.164.062a.205.205 0 0 0 .109-.034l7.451-4.908a.195.195 0 0 0 .069-.082.204.204 0 0 0 .027-.103Z"/>
  <path fill="#0078D4" d="M13.375 2.438v11.374a.42.42 0 0 0 .13.308.42.42 0 0 0 .307.13.42.42 0 0 0 .308-.13.42.42 0 0 0 .13-.307V2.437a.42.42 0 0 0-.13-.307.42.42 0 0 0-.307-.13.42.42 0 0 0-.308.13.42.42 0 0 0-.13.308Z"/>
</svg>
