<svg xmlns="http://www.w3.org/2000/svg" fill="none" viewBox="0 0 16 16">
  <path fill="#FAFAFA" d="M2.5 1.5h3a2 2 0 0 1 1.6.8l.45.6a1.5 1.5 0 0 0 1.2.6h4.75a2 2 0 0 1 2 2V9H8a1 1 0 0 0-1 1v4.5H2.5a2 2 0 0 1-2-2v-9a2 2 0 0 1 2-2Z"/>
  <path fill="#555" fill-rule="evenodd" d="M0 3.5A2.5 2.5 0 0 1 2.5 1h3a2.5 2.5 0 0 1 2 1l.75 1h5.25A2.5 2.5 0 0 1 16 5.5V9h-1V5.5A1.5 1.5 0 0 0 13.5 4H8.151l-.87.58A2.5 2.5 0 0 1 5.894 5H1v7.5A1.5 1.5 0 0 0 2.5 14H7v1H2.5A2.5 2.5 0 0 1 0 12.5v-9ZM2.5 2A1.5 1.5 0 0 0 1 3.5V4h4.894a1.5 1.5 0 0 0 .832-.252l.557-.37L6.7 2.6A1.5 1.5 0 0 0 5.5 2h-3Z"/>
  <path fill="#0078D4" d="M8.5 10a.5.5 0 0 0 0 1h7a.5.5 0 0 0 0-1h-7ZM8 12.5a.5.5 0 0 1 .5-.5h7a.5.5 0 0 1 0 1h-7a.5.5 0 0 1-.5-.5Zm0 2a.5.5 0 0 1 .5-.5h7a.5.5 0 0 1 0 1h-7a.5.5 0 0 1-.5-.5Z"/>
</svg>
