<svg xmlns="http://www.w3.org/2000/svg" fill="none" viewBox="0 0 16 16">
  <path fill="#FAFAFA" d="M15.5 4v8a1.5 1.5 0 0 1-1.5 1.5H2A1.5 1.5 0 0 1 .5 12V4A1.5 1.5 0 0 1 2 2.5h12A1.5 1.5 0 0 1 15.5 4Z"/>
  <path fill="#0078D4" fill-rule="evenodd" d="M6 5a1 1 0 0 1 1-1h5a1 1 0 0 1 1 1v1a1 1 0 0 1-1 1H7a1 1 0 0 1-1-1V5Zm6 0H7v1h5V5Z"/>
  <path fill="#555" fill-rule="evenodd" d="M2 2a2 2 0 0 0-2 2v8a2 2 0 0 0 2 2h12a2 2 0 0 0 2-2V4a2 2 0 0 0-2-2H2ZM1 4a1 1 0 0 1 1-1h1v10H2a1 1 0 0 1-1-1V4Zm3 9h10a1 1 0 0 0 1-1V4a1 1 0 0 0-1-1H4v10Z"/>
</svg>
