<svg xmlns="http://www.w3.org/2000/svg" fill="none" viewBox="0 0 16 16">
  <path fill="#FAFAFA" d="M4 1.5H2a.5.5 0 0 0-.5.5v2a.5.5 0 0 0 .5.5h2a.5.5 0 0 0 .5-.5V2a.5.5 0 0 0-.5-.5Zm0 5H2a.5.5 0 0 0-.5.5v2a.5.5 0 0 0 .5.5h2a.5.5 0 0 0 .5-.5V7a.5.5 0 0 0-.5-.5Zm0 5H2a.5.5 0 0 0-.5.5v2a.5.5 0 0 0 .5.5h2a.5.5 0 0 0 .5-.5v-2a.5.5 0 0 0-.5-.5Z"/>
  <path fill="#555" d="M1 2a1 1 0 0 1 1-1h2a1 1 0 0 1 1 1v2a1 1 0 0 1-1 1H2a1 1 0 0 1-1-1V2Zm3 0H2v2h2V2ZM1 7a1 1 0 0 1 1-1h2a1 1 0 0 1 1 1v2a1 1 0 0 1-1 1H2a1 1 0 0 1-1-1V7Zm3 0H2v2h2V7Zm-3 5a1 1 0 0 1 1-1h2a1 1 0 0 1 1 1v2a1 1 0 0 1-1 1H2a1 1 0 0 1-1-1v-2Zm3 0H2v2h2v-2ZM6.5 2a.5.5 0 0 0 0 1h8a.5.5 0 0 0 0-1h-8Zm0 5a.5.5 0 0 0 0 1h.438c.285-.372.615-.708.982-1H6.5Z"/>
  <path fill="#0078D4" d="M7 11.5a4.5 4.5 0 1 1 9 0 4.5 4.5 0 0 1-9 0Z"/>
  <path fill="#fff" d="M13 12.5a.5.5 0 1 0 1 0v-3a.5.5 0 0 0-.5-.5h-3a.5.5 0 1 0 0 1h1.736l-2.618 2.618a.54.54 0 1 0 .764.764L13 10.764V12.5Z"/>
</svg>
