<svg xmlns="http://www.w3.org/2000/svg" fill="none" viewBox="0 0 16 16">
  <path fill="#FAFAFA" d="M11.984 6.008 9.992 4.016l2.996-2.996a4.433 4.433 0 0 0-2-.49 4.483 4.483 0 0 0-4.482 4.482c.006.434.076.866.208 1.28l-5.565 5.565a2.117 2.117 0 1 0 2.994 2.994l5.564-5.565c.415.132.846.202 1.281.208a4.483 4.483 0 0 0 4.483-4.482 4.432 4.432 0 0 0-.49-2l-2.997 2.996Z"/>
  <path fill="#555" d="M7.466 1.49A4.98 4.98 0 0 1 10.988.031h.003a4.93 4.93 0 0 1 2.224.546.498.498 0 0 1 .125.795l-2.644 2.644 1.288 1.287 2.644-2.643a.498.498 0 0 1 .795.124 4.93 4.93 0 0 1 .546 2.225v.003a4.98 4.98 0 0 1-4.981 4.98h-.007a4.933 4.933 0 0 1-1.128-.147l-5.358 5.357a2.616 2.616 0 1 1-3.698-3.697l5.358-5.358a4.932 4.932 0 0 1-.147-1.128v-.007A4.98 4.98 0 0 1 7.465 1.49Zm3.52-.463a3.984 3.984 0 0 0-3.982 3.981c.006.385.068.767.184 1.133a.498.498 0 0 1-.122.504L1.5 12.21a1.622 1.622 0 0 0 0 2.29 1.62 1.62 0 0 0 2.29-.002l5.566-5.565a.498.498 0 0 1 .503-.123 3.9 3.9 0 0 0 1.134.185 3.985 3.985 0 0 0 3.98-3.983 3.94 3.94 0 0 0-.17-1.119L12.336 6.36a.498.498 0 0 1-.704 0L9.64 4.368a.498.498 0 0 1 0-.705l2.466-2.465a3.935 3.935 0 0 0-1.12-.17Z"/>
</svg>
