<svg xmlns="http://www.w3.org/2000/svg" fill="none" viewBox="0 0 16 16">
  <path fill="#FAFAFA" d="M.534 6h1.592a4.002 4.002 0 0 0 7.748 0H11.5v-.007a1.501 1.501 0 0 0 1.447-1.897 6.606 6.606 0 0 0-.674-1.596H13A2.5 2.5 0 0 1 15.5 5v6a2.5 2.5 0 0 1-2.5 2.5H3A2.5 2.5 0 0 1 .5 11V6h.034Z"/>
  <path fill="#555" d="M1 6H.534A1.5 1.5 0 0 1 0 5.914V11a3 3 0 0 0 3 3h10a3 3 0 0 0 3-3V5a3 3 0 0 0-3-3h-1.051c.224.315.421.649.59 1H13a2 2 0 0 1 2 2v5H1V6Zm2 7a2 2 0 0 1-2-2h10.5a.5.5 0 1 0 0 1 .5.5 0 0 0 0-1h2a.5.5 0 1 0 0 1 .5.5 0 0 0 0-1H15a2 2 0 0 1-2 2H3Z"/>
  <path fill="#0078D4" d="M.982 4.632C1.547 2.562 3.564 1 6.001 1c2.434 0 4.45 1.56 5.017 3.625a.5.5 0 0 0 .964-.265C11.29 1.834 8.858 0 6.001 0 3.141 0 .708 1.838.018 4.368a.5.5 0 1 0 .964.264Z"/>
  <path fill="#0078D4" d="M3 5a3 3 0 1 1 6 0 3 3 0 0 1-6 0Z"/>
</svg>
