<svg xmlns="http://www.w3.org/2000/svg" fill="none" viewBox="0 0 16 16">
  <path fill="#FAFAFA" fill-rule="evenodd" d="M.5 7v2A1.5 1.5 0 0 0 2 10.5h12A1.5 1.5 0 0 0 15.5 9V7A1.5 1.5 0 0 0 14 5.5H6A1.5 1.5 0 0 1 4.5 7c-.277 0-.394.072-.415.09-.005.004-.017.014-.032.05A.94.94 0 0 0 4 7.5a1.5 1.5 0 1 1-3 0 .94.94 0 0 0-.053-.36C.932 7.105.92 7.095.915 7.09.894 7.072.777 7 .5 7Z"/>
  <path fill="#555" fill-rule="evenodd" d="M.002 6.915A2.035 2.035 0 0 0 0 7v2a2 2 0 0 0 2 2h12a2 2 0 0 0 2-2V7a2 2 0 0 0-2-2H5.915a1.498 1.498 0 0 1 0 1H14a1 1 0 0 1 1 1v2a1 1 0 0 1-1 1H2a1 1 0 0 1-1-1V7.5a.94.94 0 0 0-.053-.36C.932 7.105.92 7.095.915 7.09.894 7.072.777 7 .5 7c-.175 0-.342-.03-.498-.085Z"/>
  <circle cx="12.25" cy="7.75" r=".75" fill="#555"/>
  <path fill="#0078D4" stroke="#0078D4" stroke-linecap="round" stroke-linejoin="round" d="M2.5 3.5c0 1.5-1 2-2 2 1 0 2 .5 2 2 0-1.5 1-2 2-2-1 0-2-.5-2-2Zm3-2c0 .8-.667 1-1 1 .8 0 1 .667 1 1 0-.8.667-1 1-1-.8 0-1-.667-1-1Z"/>
</svg>
