<svg xmlns="http://www.w3.org/2000/svg" fill="none" viewBox="0 0 16 16">
  <path fill="#FAFAFA" d="M5.55 8.5H2A1.5 1.5 0 0 0 .5 10v2A1.5 1.5 0 0 0 2 13.5h12a1.5 1.5 0 0 0 1.5-1.5v-2A1.5 1.5 0 0 0 14 8.5h-3.55c-.632.619-1.496 1-2.45 1a3.489 3.489 0 0 1-2.45-1Z"/>
  <path fill="#555" d="M2 9a1 1 0 0 0-1 1v2a1 1 0 0 0 1 1h12a1 1 0 0 0 1-1v-2a1 1 0 0 0-1-1h-3.5V8H14a2 2 0 0 1 2 2v2a2 2 0 0 1-2 2H2a2 2 0 0 1-2-2v-2a2 2 0 0 1 2-2h3.5v1H2Z"/>
  <path fill="#555" d="M13 10.75a.75.75 0 1 1-1.5 0 .75.75 0 0 1 1.5 0Z"/>
  <path fill="#0078D4" d="M5.854.146a.5.5 0 0 1 0 .708L4.707 2H8a4 4 0 1 1-4 4 .5.5 0 0 1 1 0 3 3 0 1 0 3-3H4.707l1.147 1.146a.5.5 0 1 1-.708.708l-2-2a.5.5 0 0 1 0-.708l2-2a.5.5 0 0 1 .708 0Z"/>
</svg>
