<svg xmlns="http://www.w3.org/2000/svg" fill="none" viewBox="0 0 16 16">
  <path fill="#FAFAFA" d="M.5 4A1.5 1.5 0 0 1 2 2.5h2A1.5 1.5 0 0 1 5.5 4v1A1.5 1.5 0 0 1 4 6.5H2A1.5 1.5 0 0 1 .5 5V4Z"/>
  <path fill="#555" d="M0 4a2 2 0 0 1 2-2h2a2 2 0 0 1 2 2v1a2 2 0 0 1-2 2H2a2 2 0 0 1-2-2V4Zm2-1a1 1 0 0 0-1 1v1a1 1 0 0 0 1 1h2a1 1 0 0 0 1-1V4a1 1 0 0 0-1-1H2Z"/>
  <path fill="#FAFAFA" d="M.5 11A1.5 1.5 0 0 1 2 9.5h2A1.5 1.5 0 0 1 5.5 11v1A1.5 1.5 0 0 1 4 13.5H2A1.5 1.5 0 0 1 .5 12v-1Z"/>
  <path fill="#555" d="M0 11a2 2 0 0 1 2-2h2a2 2 0 0 1 2 2v1a2 2 0 0 1-2 2H2a2 2 0 0 1-2-2v-1Zm2-1a1 1 0 0 0-1 1v1a1 1 0 0 0 1 1h2a1 1 0 0 0 1-1v-1a1 1 0 0 0-1-1H2Zm6-6.5a.5.5 0 0 1 .5-.5h7a.5.5 0 0 1 0 1h-7a.5.5 0 0 1-.5-.5Zm0 7a.5.5 0 0 1 .5-.5h7a.5.5 0 0 1 0 1h-7a.5.5 0 0 1-.5-.5Z"/>
</svg>
