<svg xmlns="http://www.w3.org/2000/svg" fill="none" viewBox="0 0 16 16">
  <path fill="#FAFAFA" d="M11 1.5H4A2.5 2.5 0 0 0 1.5 4v7A2.5 2.5 0 0 0 4 13.5h7a2.5 2.5 0 0 0 2.5-2.5V4A2.5 2.5 0 0 0 11 1.5Z"/>
  <path fill="#555" d="M3.764 15A2.99 2.99 0 0 0 6 16h6a4 4 0 0 0 4-4V6c0-.888-.386-1.687-1-2.236V12a3 3 0 0 1-3 3H3.764Z"/>
  <path fill="#555" d="M1 4a3 3 0 0 1 3-3h7a3 3 0 0 1 3 3v7a3 3 0 0 1-3 3H4a3 3 0 0 1-3-3V4Zm3-2a2 2 0 0 0-2 2v7a2 2 0 0 0 2 2h7a2 2 0 0 0 2-2V4a2 2 0 0 0-2-2H4Z"/>
  <path fill="#0078D4" d="M7.5 4a.5.5 0 0 1 .5.5V7h2.5a.5.5 0 0 1 0 1H8v2.5a.5.5 0 0 1-1 0V8H4.5a.5.5 0 0 1 0-1H7V4.5a.5.5 0 0 1 .5-.5Z"/>
</svg>
