<svg xmlns="http://www.w3.org/2000/svg" fill="none" viewBox="0 0 16 16">
  <path fill="#FAFAFA" d="M4.51 4.505v4.492c0 .826.67 1.496 1.496 1.496h2.991c.414 0 .79-.168 1.06-.44L4.51 4.505Zm5.983 3.868V2.017c0-.826-.67-1.496-1.496-1.496H6.006c-.827 0-1.496.67-1.496 1.496v.373l5.983 5.983Zm-5.983 5.61c0-.275.223-.498.498-.498h1.496v-.5c0-.274.223-.498.499-.498H8a.5.5 0 0 1 .499.499v.498h1.495a.5.5 0 0 1 .499.5v.996a.499.499 0 0 1-.499.499H5.008a.499.499 0 0 1-.498-.499v-.997Z"/>
  <path fill="#555" d="M4.011 4.007v4.99c0 1.102.893 1.995 1.995 1.995h.997v.997a.997.997 0 0 0-.997.997h-.998a.997.997 0 0 0-.997.997H.521a.499.499 0 1 0 0 .997h3.49c0 .551.447.998.997.998h4.986a.998.998 0 0 0 .998-.998h3.49a.497.497 0 0 0 .355-.148l-.85-.849h-2.995a.997.997 0 0 0-.998-.997h-.997A.997.997 0 0 0 8 11.989v-.997h.997a1.99 1.99 0 0 0 1.413-.587L9.705 9.7a.994.994 0 0 1-.708.294H6.006a.997.997 0 0 1-.998-.997V5.004l-.997-.997Zm2.493 9.976a.499.499 0 0 0 .499-.498v-.499H8v.499c0 .275.223.498.499.498h1.495v.997H5.008v-.997h1.496Zm3.49-6.109V2.017a.997.997 0 0 0-.997-.997H6.006a.997.997 0 0 0-.998.997v.871l-.993-.993A1.995 1.995 0 0 1 6.005.022h2.992c1.102 0 1.995.893 1.995 1.995v6.855l-.998-.998Z"/>
  <path fill="#555" d="M6.975 6.97a.748.748 0 1 0 1.058 1.058L6.975 6.97Z"/>
  <path fill="#0078D4" d="M.173.168a.499.499 0 0 1 .706 0l14.957 14.958a.499.499 0 1 1-.705.706L.173.874a.499.499 0 0 1 0-.706Z"/>
</svg>
